<?xml version="1.0" encoding="UTF-8"?>
<svg xmlns="http://www.w3.org/2000/svg" version="1.1" viewBox="0 0 2664 601">
  <!-- Generator: Adobe Illustrator 30.3.0, SVG Export Plug-In . SVG Version: 2.1.3 Build 182)  -->
  <defs>
    <style>
      .st0 {
        fill: #004580;
      }

      .st1 {
        display: none;
      }
    </style>
  </defs>
  <g id="Layer_1" class="st1">
    <path class="st0" d="M2046.82,0h6.55c7.8,4.95,10.76,14.26,15.05,21.97,59.14,110.85,118.38,221.65,177.59,332.46,28.62,53.99,57.82,107.69,86.15,161.82v1.06c-1.69,3.05-3.03,7.84-7.38,7.42-28.77.09-57.58.15-86.33-.03-6.9.28-8.76-7.26-11.37-12.11-5.23-9.94-10.87-19.63-15.59-29.83-8.07-13.7-14.43-28.3-22.51-41.99-6.2-13.54-14.22-26.11-20.46-39.62-3.86-8.18-8.93-15.72-12.75-23.91-5.67-12.17-13.01-23.44-18.52-35.69-8.31-14.39-15.18-29.54-23.49-43.93-5.83-12.9-13.6-24.79-19.49-37.66-4.12-8.85-9.63-16.99-13.72-25.87-5.33-11.52-12.43-22.12-17.51-33.76-2.54-4.5-4.28-10.76-9.61-12.56-3.43-.28-8.24-1.14-10.17,2.54-8.97,14.41-15.53,30.13-24.18,44.73-6.19,13.53-14.26,26.09-20.47,39.61-3.69,7.86-8.54,15.1-12.27,22.93-2.83,5.88-5.7,11.74-9.04,17.36-5.91,9.97-10.13,20.83-16.11,30.75-5.22,8.71-8.92,18.22-14.13,26.93-5.47,8.98-9.27,18.83-14.65,27.85-6.15,10.26-10.49,21.47-16.66,31.72-5.2,8.71-8.89,18.21-14.11,26.91-5.47,8.98-9.27,18.83-14.65,27.85-5.79,9.66-10.04,20.12-15.49,29.95-1.86,2.92-3.65,6.58-7.31,7.43-5.63,1-11.39.41-17.07.48-21.99-.02-43.99-.09-65.99.07-3.98-.07-8.76-.02-11.49-3.44-.85-3.74-.54-7.78,1.49-11.08,89.72-168.2,179.64-336.3,269.44-504.47,1.38-2.58,3.85-4.28,6.24-5.88h0ZM331.85,80.78c6.15-6.49,15.49-4.37,23.44-4.59,80.11.04,160.21,0,240.32.02,23.56-.79,47.42,2.77,69.53,11.02,37.22,13.35,69.25,43.34,81.3,81.49,5.33,14.47,6.49,30.04,7.56,45.28-.98,16.33-2.96,32.92-9.13,48.21-7.4,17.9-18.08,35.14-34.01,46.64-3.84,3.71-9.79,5.28-12.59,9.94,21.19,7.65,39.42,22.15,53.16,39.84,22.6,29.55,28.88,68.66,25.04,104.94-2.02,23.92-8.9,47.67-21.38,68.27-8.34,12.81-18.62,24.55-31.11,33.46-27.26,20.23-60.99,29.55-94.3,33.39-6.83.93-13.83.43-20.53,2.3h-271.21c-2.26-1.82-4.35-3.84-6.11-6.16V80.78M421.76,155.94c-2.56,3.14-1.86,7.42-2.01,11.17.23,38.95-.35,77.91.29,116.84,2.39,2.98,6.05,5.02,9.93,4.81,51.79.04,103.59-.06,155.37.06,7.21.31,14.3-1.2,21.41-2.2,16.12-2.35,32.22-8.72,43.46-20.89,7.69-7.65,11.19-18.27,13.79-28.53.63-8.31,3.28-16.65.97-24.95-1.11-14.04-6.82-27.69-16.33-38.11-13.32-12.08-31.15-17.85-48.74-19.98-5.63-.56-11.34.28-16.93-.83-6.94-1.5-14.05-.78-21.09-.86-42.51-.05-85.02.04-127.51-.06-4.43,0-8.85,1.22-12.63,3.53M424.64,366.93c-1.73.54-3.38,1.57-3.91,3.43-3.12,6.04-2.48,12.99-2.45,19.55.06,40.08-.04,80.16.04,120.23.09,5.73,3.28,13.85,10.19,13.15,54.72.03,109.45-.03,164.16.02,5.5.19,10.99,0,16.41-1,19.25-1.64,39.18-5.5,55.41-16.59,13.04-9.24,20.21-24.51,22.99-39.89,3.69-17.75,2.31-36.33-2.84-53.65-4.62-13.37-13.73-25.55-26.51-32.03-16.88-9.3-36.25-12.08-55.17-13.69-57.66.02-115.32.02-172.99,0-1.79-.04-3.58.12-5.33.47h0ZM865.82,76.62c6.1-1,12.32-.29,18.48-.41,84.99-.02,170,.04,255.01-.03,38.42,1.97,77.46,15.41,105.21,42.82,21.1,20.86,33.82,49.49,36.87,78.85-.06,11.62.48,23.28-.32,34.89-3.65,24.92-13.44,50.01-32.2,67.46-5.3,5.56-11.06,10.72-17.8,14.47-1.39,1.17-4.34,1.76-3.47,4.14,21.57,8.79,41.05,23.5,54.45,42.65,5.76,7.9,9.9,16.81,13.89,25.71,7.93,17.9,9.41,37.7,10.57,56.99-.98,14.92-1.88,29.97-5.44,44.57-5.19,25.45-18.42,49.03-36.9,67.18-7.55,6.23-15.17,12.48-23.64,17.43-23.89,14.63-51.68,21.39-79.21,25.02-7.68,1.31-15.59.6-23.17,2.64h-271.03c-4.22-2.46-8.31-6.35-7.77-11.7.03-167.12.03-334.26,0-501.38-.18-4.62,2.58-8.96,6.46-11.3M956.62,152.96c-2.81.66-5.88,1.69-7.39,4.37-2.62,3.71-1.88,8.46-1.98,12.72.13,35.68.04,71.36.03,107.02-.25,4.65,2.85,8.67,6.39,11.32,10.54.93,21.16.11,31.74.37,44.96-.03,89.9.06,134.86-.03,15.08-1.7,30.69-3.67,43.92-11.7,13.63-6.13,22.24-19.39,26.87-33.13,3.49-11.11,2.29-22.85,2.35-34.3-1-8.12-3.59-16.11-7.28-23.41-10.57-18.13-30.92-28.13-51.11-31.08-7.94-1.99-16.19-.35-24.16-1.99-6.1-1.19-12.31-.6-18.45-.66-43.49-.05-86.98.04-130.47-.06-1.8.01-3.57.19-5.32.56M953.67,366.96c-4.36.95-6.58,5.56-6.34,9.72-.03,42.04.03,84.07-.03,126.09.06,5.35-.53,10.94,1.55,16.02,1.04,3.59,5.44,4.41,8.69,4.48,55.68.08,111.38-.06,167.08.08,7.36.37,14.55-1.53,21.88-1.86,18.77-2.35,38.04-7.75,52.52-20.51,11.42-11.51,17-27.62,18.23-43.53,1.46-7.89,1.8-15.96.18-23.85-1.42-17.85-7.66-36.91-22.47-48.06-17.9-13.83-41.12-17.02-62.98-19.07-55.69.02-111.39.02-167.07,0-3.75.09-7.56-.31-11.24.5h0ZM1309.72,87.34c-2.65-5.37,2.6-11.82,8.3-11.16,27.37-.02,54.76.13,82.15-.06,3.18-.16,6.7.29,8.4,3.4,6.49,9.97,11.74,20.71,16.96,31.4,3.3,6.83,7.51,13.16,10.82,20,6.08,13.18,13.95,25.41,19.97,38.62,8.06,13.7,14.43,28.3,22.49,42,6.91,14.8,15.61,28.67,22.43,43.52,5.94,10.38,11.33,21.04,16.71,31.72,6.83,11.07,11.61,23.21,18.35,34.33,4.7,8.18,8.19,16.99,13.06,25.08,6.17,10.25,10.49,21.48,16.66,31.71,6.11,10.26,10.26,21.58,16.84,31.56,2.95,5.54,12.59,5.56,15.55,0,6.55-10,10.71-21.3,16.82-31.56,5.45-8.97,9.29-18.81,14.65-27.84,6.16-10.26,10.49-21.47,16.66-31.73,6.1-10.66,10.84-22.05,17.27-32.53,7.5-15.73,16.56-30.63,23.96-46.41,6.07-10.31,11.18-21.11,16.72-31.69,6.48-10.45,10.96-21.96,17.31-32.47,5.48-9.41,9.5-19.57,15.05-28.94,5.63-9.29,9.56-19.48,15.19-28.77,7.53-12.68,12.4-26.96,21.31-38.81,2.02-3.12,5.99-2.42,9.18-2.6,26.89.25,53.79.05,80.68.07,3.65-.41,6.73,2.03,8.46,5.06,1.71,5.05-1.96,9.66-4.28,13.82-85.5,159.81-170.76,319.74-256.23,479.57-4.89,9.13-9.03,19.05-16.6,26.37h-6.45c-9.72-6.08-12.99-17.94-18.54-27.35-86.65-162.08-173.11-324.3-259.84-486.31h0Z"/>
  </g>
  <g id="Layer_1_copy">
    <path d="M2046.82,0h6.55c7.8,4.95,10.76,14.26,15.05,21.97,59.14,110.85,118.38,221.65,177.59,332.46,28.62,53.99,57.82,107.69,86.15,161.82v1.06c-1.69,3.05-3.03,7.84-7.38,7.42-28.77.09-57.58.15-86.33-.03-6.9.28-8.76-7.26-11.37-12.11-5.23-9.94-10.87-19.63-15.59-29.83-8.07-13.7-14.43-28.3-22.51-41.99-6.2-13.54-14.22-26.11-20.46-39.62-3.86-8.18-8.93-15.72-12.75-23.91-5.67-12.17-13.01-23.44-18.52-35.69-8.31-14.39-15.18-29.54-23.49-43.93-5.83-12.9-13.6-24.79-19.49-37.66-4.12-8.85-9.63-16.99-13.72-25.87-5.33-11.52-12.43-22.12-17.51-33.76-2.54-4.5-4.28-10.76-9.61-12.56-3.43-.28-8.24-1.14-10.17,2.54-8.97,14.41-15.53,30.13-24.18,44.73-6.19,13.53-14.26,26.09-20.47,39.61-3.69,7.86-8.54,15.1-12.27,22.93-2.83,5.88-5.7,11.74-9.04,17.36-5.91,9.97-10.13,20.83-16.11,30.75-5.22,8.71-8.92,18.22-14.13,26.93-5.47,8.98-9.27,18.83-14.65,27.85-6.15,10.26-10.49,21.47-16.66,31.72-5.2,8.71-8.89,18.21-14.11,26.91-5.47,8.98-9.27,18.83-14.65,27.85-5.79,9.66-10.04,20.12-15.49,29.95-1.86,2.92-3.65,6.58-7.31,7.43-5.63,1-11.39.41-17.07.48-21.99-.02-43.99-.09-65.99.07-3.98-.07-8.76-.02-11.49-3.44-.85-3.74-.54-7.78,1.49-11.08,89.72-168.2,179.64-336.3,269.44-504.47,1.38-2.58,3.85-4.28,6.24-5.88h0ZM331.85,80.78c6.15-6.49,15.49-4.37,23.44-4.59,80.11.04,160.21,0,240.32.02,23.56-.79,47.42,2.77,69.53,11.02,37.22,13.35,69.25,43.34,81.3,81.49,5.33,14.47,6.49,30.04,7.56,45.28-.98,16.33-2.96,32.92-9.13,48.21-7.4,17.9-18.08,35.14-34.01,46.64-3.84,3.71-9.79,5.28-12.59,9.94,21.19,7.65,39.42,22.15,53.16,39.84,22.6,29.55,28.88,68.66,25.04,104.94-2.02,23.92-8.9,47.67-21.38,68.27-8.34,12.81-18.62,24.55-31.11,33.46-27.26,20.23-60.99,29.55-94.3,33.39-6.83.93-13.83.43-20.53,2.3h-271.21c-2.26-1.82-4.35-3.84-6.11-6.16V80.78M421.76,155.94c-2.56,3.14-1.86,7.42-2.01,11.17.23,38.95-.35,77.91.29,116.84,2.39,2.98,6.05,5.02,9.93,4.81,51.79.04,103.59-.06,155.37.06,7.21.31,14.3-1.2,21.41-2.2,16.12-2.35,32.22-8.72,43.46-20.89,7.69-7.65,11.19-18.27,13.79-28.53.63-8.31,3.28-16.65.97-24.95-1.11-14.04-6.82-27.69-16.33-38.11-13.32-12.08-31.15-17.85-48.74-19.98-5.63-.56-11.34.28-16.93-.83-6.94-1.5-14.05-.78-21.09-.86-42.51-.05-85.02.04-127.51-.06-4.43,0-8.85,1.22-12.63,3.53M424.64,366.93c-1.73.54-3.38,1.57-3.91,3.43-3.12,6.04-2.48,12.99-2.45,19.55.06,40.08-.04,80.16.04,120.23.09,5.73,3.28,13.85,10.19,13.15,54.72.03,109.45-.03,164.16.02,5.5.19,10.99,0,16.41-1,19.25-1.64,39.18-5.5,55.41-16.59,13.04-9.24,20.21-24.51,22.99-39.89,3.69-17.75,2.31-36.33-2.84-53.65-4.62-13.37-13.73-25.55-26.51-32.03-16.88-9.3-36.25-12.08-55.17-13.69-57.66.02-115.32.02-172.99,0-1.79-.04-3.58.12-5.33.47h0ZM865.82,76.62c6.1-1,12.32-.29,18.48-.41,84.99-.02,170,.04,255.01-.03,38.42,1.97,77.46,15.41,105.21,42.82,21.1,20.86,33.82,49.49,36.87,78.85-.06,11.62.48,23.28-.32,34.89-3.65,24.92-13.44,50.01-32.2,67.46-5.3,5.56-11.06,10.72-17.8,14.47-1.39,1.17-4.34,1.76-3.47,4.14,21.57,8.79,41.05,23.5,54.45,42.65,5.76,7.9,9.9,16.81,13.89,25.71,7.93,17.9,9.41,37.7,10.57,56.99-.98,14.92-1.88,29.97-5.44,44.57-5.19,25.45-18.42,49.03-36.9,67.18-7.55,6.23-15.17,12.48-23.64,17.43-23.89,14.63-51.68,21.39-79.21,25.02-7.68,1.31-15.59.6-23.17,2.64h-271.03c-4.22-2.46-8.31-6.35-7.77-11.7.03-167.12.03-334.26,0-501.38-.18-4.62,2.58-8.96,6.46-11.3M956.62,152.96c-2.81.66-5.88,1.69-7.39,4.37-2.62,3.71-1.88,8.46-1.98,12.72.13,35.68.04,71.36.03,107.02-.25,4.65,2.85,8.67,6.39,11.32,10.54.93,21.16.11,31.74.37,44.96-.03,89.9.06,134.86-.03,15.08-1.7,30.69-3.67,43.92-11.7,13.63-6.13,22.24-19.39,26.87-33.13,3.49-11.11,2.29-22.85,2.35-34.3-1-8.12-3.59-16.11-7.28-23.41-10.57-18.13-30.92-28.13-51.11-31.08-7.94-1.99-16.19-.35-24.16-1.99-6.1-1.19-12.31-.6-18.45-.66-43.49-.05-86.98.04-130.47-.06-1.8.01-3.57.19-5.32.56M953.67,366.96c-4.36.95-6.58,5.56-6.34,9.72-.03,42.04.03,84.07-.03,126.09.06,5.35-.53,10.94,1.55,16.02,1.04,3.59,5.44,4.41,8.69,4.48,55.68.08,111.38-.06,167.08.08,7.36.37,14.55-1.53,21.88-1.86,18.77-2.35,38.04-7.75,52.52-20.51,11.42-11.51,17-27.62,18.23-43.53,1.46-7.89,1.8-15.96.18-23.85-1.42-17.85-7.66-36.91-22.47-48.06-17.9-13.83-41.12-17.02-62.98-19.07-55.69.02-111.39.02-167.07,0-3.75.09-7.56-.31-11.24.5h0ZM1309.72,87.34c-2.65-5.37,2.6-11.82,8.3-11.16,27.37-.02,54.76.13,82.15-.06,3.18-.16,6.7.29,8.4,3.4,6.49,9.97,11.74,20.71,16.96,31.4,3.3,6.83,7.51,13.16,10.82,20,6.08,13.18,13.95,25.41,19.97,38.62,8.06,13.7,14.43,28.3,22.49,42,6.91,14.8,15.61,28.67,22.43,43.52,5.94,10.38,11.33,21.04,16.71,31.72,6.83,11.07,11.61,23.21,18.35,34.33,4.7,8.18,8.19,16.99,13.06,25.08,6.17,10.25,10.49,21.48,16.66,31.71,6.11,10.26,10.26,21.58,16.84,31.56,2.95,5.54,12.59,5.56,15.55,0,6.55-10,10.71-21.3,16.82-31.56,5.45-8.97,9.29-18.81,14.65-27.84,6.16-10.26,10.49-21.47,16.66-31.73,6.1-10.66,10.84-22.05,17.27-32.53,7.5-15.73,16.56-30.63,23.96-46.41,6.07-10.31,11.18-21.11,16.72-31.69,6.48-10.45,10.96-21.96,17.31-32.47,5.48-9.41,9.5-19.57,15.05-28.94,5.63-9.29,9.56-19.48,15.19-28.77,7.53-12.68,12.4-26.96,21.31-38.81,2.02-3.12,5.99-2.42,9.18-2.6,26.89.25,53.79.05,80.68.07,3.65-.41,6.73,2.03,8.46,5.06,1.71,5.05-1.96,9.66-4.28,13.82-85.5,159.81-170.76,319.74-256.23,479.57-4.89,9.13-9.03,19.05-16.6,26.37h-6.45c-9.72-6.08-12.99-17.94-18.54-27.35-86.65-162.08-173.11-324.3-259.84-486.31h0Z"/>
  </g>
</svg>