<?xml version="1.0" encoding="UTF-8"?>
<svg xmlns="http://www.w3.org/2000/svg" version="1.1" viewBox="0 0 2500 784">
  <!-- Generator: Adobe Illustrator 30.3.0, SVG Export Plug-In . SVG Version: 2.1.3 Build 182)  -->
  <defs>
    <style>
      .st0 {
        fill: #f40009;
      }

      .st1 {
        display: none;
      }
    </style>
  </defs>
  <g id="Layer_1" class="st1">
    <g>
      <path class="st0" d="M1301.58,218.07h-72.4l-40.84,66.21h72.37l40.87-66.21ZM1489.41,392.3c-37.93,3.14-104.94,37.07-141.44,111.21s-36.63,119.9-36.63,119.9c0,0,19.25-21.1,48.76-43.2s51.47-29.95,51.47-29.95c0,0,5.48-27.22,19.1-55.69,13.25-27.69,34.28-56.52,60.3-63.06,52.74-13.28,27.49,82.99-11.25,145.77-20.82,33.74-94.68,130.7-158.27,130.7s-75.86-61.31-62.45-118.63c13.4-57.31,31.94-130.13,124.71-262.44s193.18-210.75,251.3-243.71c59.7-33.83,84.02-19.01,84.02-19.01,0,0-76.21,46.94-119.56,103.42-41.45,53.98-66.19,114.72-46.95,144.48,18.32,28.36,82.88,28.89,153.98-73.76,70.18-101.33,52.45-161.59,52.45-161.59,0,0,8.48-2.76,14.17-3.53,34.22-4.55,61.64,4.47,104.08,26.24,44.47,22.81,87.14,59.39,145.6,89.33,17.6-19.29,37.19-39.77,57.8-59.76-78.81-38.36-138.64-93.05-215.94-98.29-67.28-4.55-120.33,19.96-120.33,19.96,0,0-20.52-27.95-83.83-18.83-63.31,9.13-258.35,90.68-424.3,356.44-150.04,240.28-79.35,377.98,28.5,376.4,116.91-1.72,228.13-131.74,265.77-238.96s-6.84-136.28-41.07-133.46h0ZM1718.92,169.03c-19.65,47.9-48.58,81.37-77.04,106.93-36.51,32.79-56.55,31.69-65.22,25.1-22.65-17.25,7.74-82.3,60.5-140.47,52.54-57.94,97.77-75.97,97.77-75.97,0,.68,7.52,26.98-16,84.41ZM2369.95,99.18c-53.5,34.42-127.67,65.58-198.86,58.72-18,18.69-37.31,40.23-56.68,63.79,123.56,24.37,231.64-52.17,289.18-117.4,35.89-40.67,53.62-76.97,53.62-76.97,0,0-34.27,37.77-87.26,71.86h0Z"/>
      <path class="st0" d="M2311.51,401.15h-76.14l-12.37,19.12s-15.53-28.02-41.83-27.57c-45.06.78-90.16,35.18-142.57,94.85-38.41,43.72-102.08,141.05-102.08,141.05,0,0-48.86,75.29-73.57,69.39-42.13-10.07,35.36-165.96,35.36-165.96,0,0,40.74-25.16,93.53-69.58,33.24-27.96,71.48-66.42,106.64-102.07,31.97-32.43,69.64-76.46,105.45-124.7-9.17,1.45-18.57,2.43-28.15,2.91-32.11,42.35-66.4,80.25-95.55,110.38-43.4,44.85-83.33,81.54-112.34,104.94-27.8,22.41-45.63,32.5-45.63,32.5,0,0,53.03-108.92,141.43-229.26,88.4-120.33,212.16-232.11,202.46-179.08-2.77,15.23-12.24,37.07-26.52,62.99,10.05-2.1,19.82-4.71,29.24-7.69,21.3-43.96,28.55-80.19,12.66-90.66C2216.67,0,2051.7,176.74,1969,279.4c-82.69,102.65-157.53,259.53-157.53,259.53,0,0-12.94,5.43-27.24,8.14-9.02,1.72-12.88,1.34-14.35.76-.74-.3-.82-.81-.82-.81,0,0,72.74-135.99-1.73-154.03-71.87-17.4-196.4,115.57-240.68,208.06-30.38,63.45-47.52,143.33,4.58,162.35,56.43,20.61,152.27-82.41,174.8-112.34,22.53-29.95,50.66-79.73,50.66-79.73,0,0,13.76-.73,21.28-1.83,14.39-2.12,21.13-3.89,21.13-3.89,0,0-9.33,24.43-19.42,55.41-18.81,57.76-35.78,140.4,31.94,144.29,43.15,2.46,106.46-75.47,106.46-75.47,0,0-17.03,69.29,38.97,75.47,41.34,4.55,101.51-59.32,101.51-59.32,0,0-13.11,55.03,28.81,59.88,35.88,4.16,86.82-37.92,128.59-84.2,45.61-50.54,80.59-105.89,80.59-105.89h-26.52s-58.69,89.09-99.9,112.93c-33.83,19.58-22.24-11.79-11.98-28.23,11.31-18.13,153.33-259.31,153.33-259.3h.04ZM1731.43,568.94c-1.04,2.39-20.1,35.54-40.48,61.61-21.96,28.09-62.17,70.37-86.34,61.43-37.78-13.98,3.79-96.29,30.98-136.22s30.27-42.63,31.04-43.67,1.53-2,2.19-.76,9.32,17.64,26.4,31.87c17.15,14.29,33.65,21.84,34.98,22.31s2.29,1.04,1.24,3.42h0ZM1748.43,539.27c-2.39,3.97-4.09,4.17-9.05,2.85-8.72-2.36-44.86-19.07-44.58-56.12.25-36.11,51.16-71.48,71.12-56.37,18.63,14.1,9.73,50.15,2.7,68.54-7.01,18.38-18.63,38.5-20.19,41.1h0ZM2094.3,628.6c-10.05,13.79-18.46,26.24-26.04,34.98-16.21,18.72-26.78,27.43-36.21,29.73-4.75,1.15-10.64.87-14.54-1.49-13.83-8.42-4.14-41.2,19.94-85.27,22.04-40.28,47.5-80.58,89.35-126.98,42.02-46.58,58.1-48.82,69.86-48.29,9.9.42,11.3,10.83,11.3,10.83,0,0-.7,2.41-2.28,5.14-13.87,24.05-83.74,143.44-111.4,181.35h.01ZM971.26,686.87c-46.17-28.53-105.39-46.83-173.43-47.43-175.29-1.53-366.14,83.63-495.41,84.79-152.47,1.33-160.06-115.97-148.76-180.38,24.32-138.76,122.75-271.15,186.03-340.95,63.3-69.8,129.62-123.96,184.76-137.81s49.96,28.09,43.21,33.82c-6.97.15-20.33,1.65-27.91,6.89-11.87,8.19-27.73,23.19-28.72,46.97-1.71,36.63,45.63,43.05,79.85-33.65,23.34-52.32-13.68-87.83-44.42-91.24-42.17-4.7-106.61,9.96-183.54,59.39C229.04,173.31,49.96,364.36,45.39,576.33c-2.6,120.92,76.39,188.96,184.77,188.96s255.53-66.37,399.21-68.07c88.96-.76,146.54,30.42,175.7,81.2,0,0,28.98-48.2,93.51-50.78,63.84-2.57,134.13,15.32,191.82,55.88-19.25-27.81-73.66-68.55-119.16-96.66h.01Z"/>
      <path class="st0" d="M572.07,210.66c-73.48-18.73-195.52,106.36-246.94,208.17-31.71,62.8-45.62,141.72,10.84,162.25s152.26-82.41,174.79-112.34c22.53-29.95,59.41-89.92,59.41-89.92,0,0,11.31-2.18,18.73-3.9s19.39-5.14,19.39-5.14c0,0-13.89,24.76-26.43,50.14-14.86,30.09-55.25,130.26,22.73,160.3,74.5,28.7,180.56-90.98,186.13-93.24,0,0-31.57,81.55,17.47,94.1,53.81,13.76,112.78-55.18,112.78-55.18,0,0-12.42,51.75,29.51,56.61,75.08,8.69,207.89-183.36,207.89-183.36h-26.53s-67.58,86.97-100.09,104.93-20.81-13.96-11.98-28.23c11.27-18.16,154.84-258.06,154.84-258.06h-76.14l-8.83,13.97s-15.69-23.95-41.91-22.24c-76.31,4.98-167.1,126.6-207.03,180.21-39.92,53.62-126.03,155.98-171.38,137.74-49.41-19.89-.28-111.21,32.22-164.82,35.38-58.36,98.1-116.17,122.9-116.62,30.51-.57,18.53,27.09,18.53,27.09,0,0-22.81-2.85-39.35,17.96-11.7,14.72-21.39,36.21-10.27,47.9,17.96,18.89,41.36-.29,55.32-21.68,43.55-66.66,11.69-101.79-22.52-106.92-72.88-10.94-140.01,82.69-191.05,117.48-35.41,24.12-50.2,22.24-50.2,22.24,0,0,61.43-120.51-12.83-139.44h-.01ZM901.99,426.24c22.04-40.29,52.05-79.19,91.12-127.95s58.51-52.71,70.27-52.17c9.9.44,11.3,10.83,11.3,10.83,0,0-84.88,147.9-115.68,190.1-10.05,13.79-18.66,25.46-26.24,34.22-16.21,18.72-27.98,27.77-37.07,30.02-4.75,1.16-10.64.87-14.55-1.5-13.83-8.42-3.28-39.49,20.82-83.55h.01ZM541.75,378.24c-1.05,2.37-25.29,42.46-45.67,68.53-21.95,28.09-62.52,70.54-86.69,61.6-37.78-13.98,2.52-95.72,29.7-135.64,27.18-39.93,31.17-45.06,31.94-46.09.76-1.05,1.51-2.01,2.18-.76.67,1.24,9.32,19.02,28.04,30.99,18.73,11.98,37.93,17.49,39.26,17.96s2.29,1.05,1.24,3.42h-.01ZM573.35,315.85c-7.03,18.4-13.3,29.99-14.6,32.73-2.08,4.39-7.3,2.98-7.3,2.98-5.95-.27-52.19-10.82-51.92-47.87.25-36.11,51.17-71.48,71.12-56.37,18.63,14.1,9.73,50.15,2.7,68.53h0ZM2254.22,721.33c-4.45-2.52-9.39-3.77-14.83-3.77s-10.38,1.26-14.83,3.77c-4.45,2.52-7.93,5.94-10.49,10.28-2.54,4.34-3.83,9.06-3.83,14.15s1.27,9.9,3.83,14.21c2.54,4.3,6.04,7.72,10.49,10.22,4.45,2.52,9.39,3.77,14.83,3.77s10.38-1.26,14.83-3.77,7.93-5.92,10.49-10.22c2.54-4.3,3.83-9.04,3.83-14.21s-1.27-9.81-3.83-14.15c-2.54-4.34-6.04-7.76-10.49-10.28ZM2259.44,757.45c-1.93,3.44-4.64,6.14-8.12,8.12-3.48,1.96-7.46,2.94-11.93,2.94s-8.46-.98-11.93-2.94-6.18-4.66-8.12-8.12c-1.93-3.44-2.9-7.34-2.9-11.68s.97-8.13,2.9-11.57,4.65-6.14,8.16-8.12,7.47-2.94,11.88-2.94,8.37.98,11.88,2.94,6.24,4.66,8.16,8.12c1.93,3.44,2.9,7.3,2.9,11.57s-.97,8.24-2.9,11.68h0Z"/>
      <path class="st0" d="M2250.34,745.31c.82-1.34,1.24-2.85,1.24-4.49,0-2.28-.74-4.18-2.22-5.73s-3.46-2.33-5.94-2.33h-14.78v25.52h6.51v-9.3h4.95l6,9.3h7.44l-6.71-9.92c1.51-.69,2.69-1.71,3.51-3.05ZM2244.14,742.62c-.48.45-1.14.67-1.96.67h-7.03v-4.95h7.03c.82,0,1.48.23,1.96.67.48.45.73,1.05.73,1.8s-.24,1.36-.73,1.8h0Z"/>
    </g>
  </g>
  <g id="Layer_1_copy">
    <g>
      <path d="M1301.58,218.07h-72.4l-40.84,66.21h72.37l40.87-66.21ZM1489.41,392.3c-37.93,3.14-104.94,37.07-141.44,111.21s-36.63,119.9-36.63,119.9c0,0,19.25-21.1,48.76-43.2s51.47-29.95,51.47-29.95c0,0,5.48-27.22,19.1-55.69,13.25-27.69,34.28-56.52,60.3-63.06,52.74-13.28,27.49,82.99-11.25,145.77-20.82,33.74-94.68,130.7-158.27,130.7s-75.86-61.31-62.45-118.63c13.4-57.31,31.94-130.13,124.71-262.44s193.18-210.75,251.3-243.71c59.7-33.83,84.02-19.01,84.02-19.01,0,0-76.21,46.94-119.56,103.42-41.45,53.98-66.19,114.72-46.95,144.48,18.32,28.36,82.88,28.89,153.98-73.76,70.18-101.33,52.45-161.59,52.45-161.59,0,0,8.48-2.76,14.17-3.53,34.22-4.55,61.64,4.47,104.08,26.24,44.47,22.81,87.14,59.39,145.6,89.33,17.6-19.29,37.19-39.77,57.8-59.76-78.81-38.36-138.64-93.05-215.94-98.29-67.28-4.55-120.33,19.96-120.33,19.96,0,0-20.52-27.95-83.83-18.83-63.31,9.13-258.35,90.68-424.3,356.44-150.04,240.28-79.35,377.98,28.5,376.4,116.91-1.72,228.13-131.74,265.77-238.96s-6.84-136.28-41.07-133.46h0ZM1718.92,169.03c-19.65,47.9-48.58,81.37-77.04,106.93-36.51,32.79-56.55,31.69-65.22,25.1-22.65-17.25,7.74-82.3,60.5-140.47,52.54-57.94,97.77-75.97,97.77-75.97,0,.68,7.52,26.98-16,84.41ZM2369.95,99.18c-53.5,34.42-127.67,65.58-198.86,58.72-18,18.69-37.31,40.23-56.68,63.79,123.56,24.37,231.64-52.17,289.18-117.4,35.89-40.67,53.62-76.97,53.62-76.97,0,0-34.27,37.77-87.26,71.86h0Z"/>
      <path d="M2311.51,401.15h-76.14l-12.37,19.12s-15.53-28.02-41.83-27.57c-45.06.78-90.16,35.18-142.57,94.85-38.41,43.72-102.08,141.05-102.08,141.05,0,0-48.86,75.29-73.57,69.39-42.13-10.07,35.36-165.96,35.36-165.96,0,0,40.74-25.16,93.53-69.58,33.24-27.96,71.48-66.42,106.64-102.07,31.97-32.43,69.64-76.46,105.45-124.7-9.17,1.45-18.57,2.43-28.15,2.91-32.11,42.35-66.4,80.25-95.55,110.38-43.4,44.85-83.33,81.54-112.34,104.94-27.8,22.41-45.63,32.5-45.63,32.5,0,0,53.03-108.92,141.43-229.26,88.4-120.33,212.16-232.11,202.46-179.08-2.77,15.23-12.24,37.07-26.52,62.99,10.05-2.1,19.82-4.71,29.24-7.69,21.3-43.96,28.55-80.19,12.66-90.66C2216.67,0,2051.7,176.74,1969,279.4c-82.69,102.65-157.53,259.53-157.53,259.53,0,0-12.94,5.43-27.24,8.14-9.02,1.72-12.88,1.34-14.35.76-.74-.3-.82-.81-.82-.81,0,0,72.74-135.99-1.73-154.03-71.87-17.4-196.4,115.57-240.68,208.06-30.38,63.45-47.52,143.33,4.58,162.35,56.43,20.61,152.27-82.41,174.8-112.34,22.53-29.95,50.66-79.73,50.66-79.73,0,0,13.76-.73,21.28-1.83,14.39-2.12,21.13-3.89,21.13-3.89,0,0-9.33,24.43-19.42,55.41-18.81,57.76-35.78,140.4,31.94,144.29,43.15,2.46,106.46-75.47,106.46-75.47,0,0-17.03,69.29,38.97,75.47,41.34,4.55,101.51-59.32,101.51-59.32,0,0-13.11,55.03,28.81,59.88,35.88,4.16,86.82-37.92,128.59-84.2,45.61-50.54,80.59-105.89,80.59-105.89h-26.52s-58.69,89.09-99.9,112.93c-33.83,19.58-22.24-11.79-11.98-28.23,11.31-18.13,153.33-259.31,153.33-259.3h.04ZM1731.43,568.94c-1.04,2.39-20.1,35.54-40.48,61.61-21.96,28.09-62.17,70.37-86.34,61.43-37.78-13.98,3.79-96.29,30.98-136.22s30.27-42.63,31.04-43.67,1.53-2,2.19-.76,9.32,17.64,26.4,31.87c17.15,14.29,33.65,21.84,34.98,22.31s2.29,1.04,1.24,3.42h0ZM1748.43,539.27c-2.39,3.97-4.09,4.17-9.05,2.85-8.72-2.36-44.86-19.07-44.58-56.12.25-36.11,51.16-71.48,71.12-56.37,18.63,14.1,9.73,50.15,2.7,68.54-7.01,18.38-18.63,38.5-20.19,41.1h0ZM2094.3,628.6c-10.05,13.79-18.46,26.24-26.04,34.98-16.21,18.72-26.78,27.43-36.21,29.73-4.75,1.15-10.64.87-14.54-1.49-13.83-8.42-4.14-41.2,19.94-85.27,22.04-40.28,47.5-80.58,89.35-126.98,42.02-46.58,58.1-48.82,69.86-48.29,9.9.42,11.3,10.83,11.3,10.83,0,0-.7,2.41-2.28,5.14-13.87,24.05-83.74,143.44-111.4,181.35h.01ZM971.26,686.87c-46.17-28.53-105.39-46.83-173.43-47.43-175.29-1.53-366.14,83.63-495.41,84.79-152.47,1.33-160.06-115.97-148.76-180.38,24.32-138.76,122.75-271.15,186.03-340.95,63.3-69.8,129.62-123.96,184.76-137.81s49.96,28.09,43.21,33.82c-6.97.15-20.33,1.65-27.91,6.89-11.87,8.19-27.73,23.19-28.72,46.97-1.71,36.63,45.63,43.05,79.85-33.65,23.34-52.32-13.68-87.83-44.42-91.24-42.17-4.7-106.61,9.96-183.54,59.39C229.04,173.31,49.96,364.36,45.39,576.33c-2.6,120.92,76.39,188.96,184.77,188.96s255.53-66.37,399.21-68.07c88.96-.76,146.54,30.42,175.7,81.2,0,0,28.98-48.2,93.51-50.78,63.84-2.57,134.13,15.32,191.82,55.88-19.25-27.81-73.66-68.55-119.16-96.66h.01Z"/>
      <path d="M572.07,210.66c-73.48-18.73-195.52,106.36-246.94,208.17-31.71,62.8-45.62,141.72,10.84,162.25s152.26-82.41,174.79-112.34c22.53-29.95,59.41-89.92,59.41-89.92,0,0,11.31-2.18,18.73-3.9s19.39-5.14,19.39-5.14c0,0-13.89,24.76-26.43,50.14-14.86,30.09-55.25,130.26,22.73,160.3,74.5,28.7,180.56-90.98,186.13-93.24,0,0-31.57,81.55,17.47,94.1,53.81,13.76,112.78-55.18,112.78-55.18,0,0-12.42,51.75,29.51,56.61,75.08,8.69,207.89-183.36,207.89-183.36h-26.53s-67.58,86.97-100.09,104.93-20.81-13.96-11.98-28.23c11.27-18.16,154.84-258.06,154.84-258.06h-76.14l-8.83,13.97s-15.69-23.95-41.91-22.24c-76.31,4.98-167.1,126.6-207.03,180.21-39.92,53.62-126.03,155.98-171.38,137.74-49.41-19.89-.28-111.21,32.22-164.82,35.38-58.36,98.1-116.17,122.9-116.62,30.51-.57,18.53,27.09,18.53,27.09,0,0-22.81-2.85-39.35,17.96-11.7,14.72-21.39,36.21-10.27,47.9,17.96,18.89,41.36-.29,55.32-21.68,43.55-66.66,11.69-101.79-22.52-106.92-72.88-10.94-140.01,82.69-191.05,117.48-35.41,24.12-50.2,22.24-50.2,22.24,0,0,61.43-120.51-12.83-139.44h-.01ZM901.99,426.24c22.04-40.29,52.05-79.19,91.12-127.95s58.51-52.71,70.27-52.17c9.9.44,11.3,10.83,11.3,10.83,0,0-84.88,147.9-115.68,190.1-10.05,13.79-18.66,25.46-26.24,34.22-16.21,18.72-27.98,27.77-37.07,30.02-4.75,1.16-10.64.87-14.55-1.5-13.83-8.42-3.28-39.49,20.82-83.55h.01ZM541.75,378.24c-1.05,2.37-25.29,42.46-45.67,68.53-21.95,28.09-62.52,70.54-86.69,61.6-37.78-13.98,2.52-95.72,29.7-135.64,27.18-39.93,31.17-45.06,31.94-46.09.76-1.05,1.51-2.01,2.18-.76.67,1.24,9.32,19.02,28.04,30.99,18.73,11.98,37.93,17.49,39.26,17.96s2.29,1.05,1.24,3.42h-.01ZM573.35,315.85c-7.03,18.4-13.3,29.99-14.6,32.73-2.08,4.39-7.3,2.98-7.3,2.98-5.95-.27-52.19-10.82-51.92-47.87.25-36.11,51.17-71.48,71.12-56.37,18.63,14.1,9.73,50.15,2.7,68.53h0ZM2254.22,721.33c-4.45-2.52-9.39-3.77-14.83-3.77s-10.38,1.26-14.83,3.77c-4.45,2.52-7.93,5.94-10.49,10.28-2.54,4.34-3.83,9.06-3.83,14.15s1.27,9.9,3.83,14.21c2.54,4.3,6.04,7.72,10.49,10.22,4.45,2.52,9.39,3.77,14.83,3.77s10.38-1.26,14.83-3.77,7.93-5.92,10.49-10.22c2.54-4.3,3.83-9.04,3.83-14.21s-1.27-9.81-3.83-14.15c-2.54-4.34-6.04-7.76-10.49-10.28ZM2259.44,757.45c-1.93,3.44-4.64,6.14-8.12,8.12-3.48,1.96-7.46,2.94-11.93,2.94s-8.46-.98-11.93-2.94-6.18-4.66-8.12-8.12c-1.93-3.44-2.9-7.34-2.9-11.68s.97-8.13,2.9-11.57,4.65-6.14,8.16-8.12,7.47-2.94,11.88-2.94,8.37.98,11.88,2.94,6.24,4.66,8.16,8.12c1.93,3.44,2.9,7.3,2.9,11.57s-.97,8.24-2.9,11.68h0Z"/>
      <path d="M2250.34,745.31c.82-1.34,1.24-2.85,1.24-4.49,0-2.28-.74-4.18-2.22-5.73s-3.46-2.33-5.94-2.33h-14.78v25.52h6.51v-9.3h4.95l6,9.3h7.44l-6.71-9.92c1.51-.69,2.69-1.71,3.51-3.05ZM2244.14,742.62c-.48.45-1.14.67-1.96.67h-7.03v-4.95h7.03c.82,0,1.48.23,1.96.67.48.45.73,1.05.73,1.8s-.24,1.36-.73,1.8h0Z"/>
    </g>
  </g>
</svg>