<?xml version="1.0" encoding="UTF-8"?>
<svg id="Layer_1" xmlns="http://www.w3.org/2000/svg" version="1.1" viewBox="0 0 2500 2000">
  <!-- Generator: Adobe Illustrator 30.3.0, SVG Export Plug-In . SVG Version: 2.1.3 Build 182)  -->
  <path d="M1642.88,142.92c197.2,0,357.11,831.41,357.11,1857.03h285.74C2285.73,895.42,1997.89.05,1642.9.05c-201.97,0-382.18,269.09-500,689.88C1025.09,269.14,844.83.05,642.86.05,287.88.05,0,895.42,0,1999.95h285.78c0-1025.61,159.91-1857.03,357.09-1857.03s357.19,767.46,357.19,1714.23h285.68c0-946.77,159.89-1714.23,357.15-1714.23M2428.75,1857.15c38.76,0,71.25,30.69,71.25,71.06s-32.49,71.71-71.25,71.71-71.65-30.72-71.65-71.71,32.76-71.06,71.65-71.06M2428.75,1989.51c32.83,0,58.31-26.38,58.31-61.27s-25.51-60.63-58.31-60.63-58.7,26.34-58.7,60.63c0,34.89,25.46,61.27,58.7,61.27ZM2400.98,1886.75h32.2c19.7,0,28.99,7.84,28.99,23.83,0,15.08-9.41,21.38-21.75,22.7l23.71,36.91h-13.91l-22.58-35.9h-13.65v35.9h-12.96v-83.44h-.04ZM2413.95,1923.82h13.49c11.38,0,21.84-.57,21.84-13.79,0-11.1-9.49-12.84-18.22-12.84h-17.09l-.02,26.63Z"/>
</svg>