<?xml version="1.0" encoding="UTF-8"?>
<svg xmlns="http://www.w3.org/2000/svg" version="1.1" viewBox="0 0 2500 524">
  <!-- Generator: Adobe Illustrator 30.3.0, SVG Export Plug-In . SVG Version: 2.1.3 Build 182)  -->
  <defs>
    <style>
      .st0 {
        fill: #3743bb;
      }

      .st1 {
        display: none;
      }
    </style>
  </defs>
  <g id="Layer_1" class="st1">
    <g>
      <path class="st0" d="M1214.22,257.38c-41.26,69.25-134.75,62.33-135.33-25.68,0-38.67,19.33-72.14,53.67-72.14,29.72,0,44.15,24.24,44.15,42.13h66.66c-8.95-145.14-237.77-136.2-231.99,31.16.87,149.76,169.96,165.05,234.3,79.93h90.32v45.88h66.66V105.32h-92.34s-72.14,118.02-96.66,152.07h.58ZM1336.28,180.63v80.51h-55.98c25.1-39.82,50.5-80.51,50.5-80.51h5.48ZM1416.49,105.32v55.4h63.19v197.95h66.66v-197.95h63.19v-55.4h-193.33.29ZM1776.6,201.69h-85.41v-96.38h-66.66v253.64h66.66v-101.28h85.41v101.28h66.66V105.32h-66.66v96.38ZM1926.36,105.32h-66.66v253.64h164.47v-56.84h-97.82V105.32ZM2234.25,134.75c-37.51-40.97-110.8-44.15-157.55-18.18-62.04,34.63-73.87,118.31-47.61,179.48,37.51,81.37,160.72,89.74,214.39,24.24,39.82-50.5,39.53-141.68-9.23-185.54ZM2162.97,301.82c-27.41,7.5-59.44-1.73-71.56-29.43-16.45-40.11-7.5-108.78,45.88-112.25,34.63-4.91,64.35,23.08,66.08,57.13,3.75,32.32-3.75,74.45-40.4,84.55h0ZM2432.48,105.32v137.35l-79.93-137.35h-67.52v253.64h67.52v-137.35l80.22,137.93,67.23-.58V105.32h-67.52ZM705.51,105.32h-98.97v253.64h98.97c160.72,2.89,160.72-256.81,0-253.64h0ZM708.68,301.82h-35.2v-139.37h35.2c65.79-1.15,65.79,140.52,0,139.37Z"/>
      <path class="st0" d="M1011.08,162.16v-56.84h-171.98v253.64h171.98v-56.84h-105.61v-43.57h93.2v-52.8h-93.2v-43.28h105.61v-.29ZM520.83,92.33c-44.44-62.9-169.38-51.65-279.03,25.39C0,292.01,113.4,514.48,378,362.13V121.48c-119.46,182.36-207.18,262.58-234.88,196.21C112.82,208.04,401.08,9.52,476.4,104.74c23.95,34.05-1.44,95.22-57.42,150.33v78.77c98.4-76.47,143.7-181.79,101.86-241.81v.29Z"/>
    </g>
  </g>
  <g id="Layer_1_copy">
    <g>
      <path d="M1214.22,257.38c-41.26,69.25-134.75,62.33-135.33-25.68,0-38.67,19.33-72.14,53.67-72.14,29.72,0,44.15,24.24,44.15,42.13h66.66c-8.95-145.14-237.77-136.2-231.99,31.16.87,149.76,169.96,165.05,234.3,79.93h90.32v45.88h66.66V105.32h-92.34s-72.14,118.02-96.66,152.07h.58ZM1336.28,180.63v80.51h-55.98c25.1-39.82,50.5-80.51,50.5-80.51h5.48ZM1416.49,105.32v55.4h63.19v197.95h66.66v-197.95h63.19v-55.4h-193.33.29ZM1776.6,201.69h-85.41v-96.38h-66.66v253.64h66.66v-101.28h85.41v101.28h66.66V105.32h-66.66v96.38ZM1926.36,105.32h-66.66v253.64h164.47v-56.84h-97.82V105.32ZM2234.25,134.75c-37.51-40.97-110.8-44.15-157.55-18.18-62.04,34.63-73.87,118.31-47.61,179.48,37.51,81.37,160.72,89.74,214.39,24.24,39.82-50.5,39.53-141.68-9.23-185.54ZM2162.97,301.82c-27.41,7.5-59.44-1.73-71.56-29.43-16.45-40.11-7.5-108.78,45.88-112.25,34.63-4.91,64.35,23.08,66.08,57.13,3.75,32.32-3.75,74.45-40.4,84.55h0ZM2432.48,105.32v137.35l-79.93-137.35h-67.52v253.64h67.52v-137.35l80.22,137.93,67.23-.58V105.32h-67.52ZM705.51,105.32h-98.97v253.64h98.97c160.72,2.89,160.72-256.81,0-253.64h0ZM708.68,301.82h-35.2v-139.37h35.2c65.79-1.15,65.79,140.52,0,139.37Z"/>
      <path d="M1011.08,162.16v-56.84h-171.98v253.64h171.98v-56.84h-105.61v-43.57h93.2v-52.8h-93.2v-43.28h105.61v-.29ZM520.83,92.33c-44.44-62.9-169.38-51.65-279.03,25.39C0,292.01,113.4,514.48,378,362.13V121.48c-119.46,182.36-207.18,262.58-234.88,196.21C112.82,208.04,401.08,9.52,476.4,104.74c23.95,34.05-1.44,95.22-57.42,150.33v78.77c98.4-76.47,143.7-181.79,101.86-241.81v.29Z"/>
    </g>
  </g>
</svg>