<?xml version="1.0" encoding="UTF-8"?>
<svg xmlns="http://www.w3.org/2000/svg" version="1.1" viewBox="0 0 2500 1503">
  <!-- Generator: Adobe Illustrator 30.3.0, SVG Export Plug-In . SVG Version: 2.1.3 Build 182)  -->
  <defs>
    <style>
      .st0 {
        fill: #7bb51c;
      }

      .st1 {
        display: none;
      }
    </style>
  </defs>
  <g id="Layer_1" class="st1">
    <path class="st0" d="M258.68,1502.45h1970.62l-980.08-980.07-990.54,980.07Z"/>
    <path d="M221.03,1454.26l153.53-149.77-51.14-52.45-96.43,94.11-169.87-174.17L0,1227.7l221.03,226.56ZM408.25,1270.38l157.31-153.52-43.2-44.25-99.89,97.44-47.97-49.18,80.04-78.09-45.21-46.3-80.04,78.05-41.1-42.12,96.6-94.27-43.17-44.24-156.82,153,223.43,223.47ZM923.15,542.61c-63.44-65.04-173.5-57.26-226.5-5.53-53.02,51.72-80.07,154.85-5.21,231.6,82.23,84.28,180.07,53.67,233.09,1.98,78.17-76.26,50.34-175.02-1.38-228.04h0ZM876.52,726.12c-35.09,34.24-78,24.95-127.01-25.31-41.2-42.22-38.72-84.64-8.76-113.87,20.6-20.1,62.43-38.08,112.21,12.94,56.79,58.21,58.66,91.99,23.57,126.23h0ZM1100.1,596.63l58.04-56.64-87.31-89.49-52.26-217.44-66.53,64.92,34.61,123.36-116.93-43.06-62.73,61.2,199.35,64.01,93.77,93.14ZM790.65,898.88s-141.25-48.19-147.97-47.03c-2.18.36,30.34-86.17-42.72-124.52,0,0-54.21-29.35-108.46,19.94l-115.63,113.96,222.92,224.5,58.98-57.54-120.63-123.61,195,51.41,58.52-57.1ZM571.87,868.05c-32.77,31.92-37.2,34.44-37.2,34.44l-53.2-54.52c-1.82-1.86,36.74-34.92,42.82-40.85,2.57-2.52,26.59-18.18,46.46,2.18,0,0,33.88,26.79,1.12,58.76h0ZM1082.09,275.9l-51.58-52.01L1255.69.55l73.7,74.3-81.12,159.66,165.39-74.7,70.91,71.51-225.18,223.35-54.35-54.79,118.86-117.88-162.6,73.77-33.61-33.9,75.58-162.45-121.17,116.49ZM1473.08,670.1l-156.13-157.4,225.19-223.35,156.57,157.87-45.49,45.12-98.09-98.89-36.69,36.37,77.37,78.01-47.37,46.97-76.9-77.54-49.22,48.81,97.17,97.97-46.42,46.06ZM1987.92,738.8l58.02,58.52-170.4,168.99,95.32,96.08-54.79,54.38-153.34-154.61,225.19-223.36ZM1956.59,1157.64l225.19-223.35,56.64,57.1-225.19,223.33-56.64-57.08ZM2115.93,1318.31l-52.97-53.41,225.21-223.33,76.91,77.5-65.72,231.89,149.06-147.85,51.58,52.01-225.18,223.33-67.26-67.77,57.91-243.45-149.55,151.08ZM1886.15,636.2l-136.77-137.91-225.66,222.89,58.02,58.49,123.03-122.02-44.28,201.42,59.4,59.9s46.83-144.08,48.27-150.09c0,0,50.74,27.95,106.42-19.91,0,0,53.4-52.03,11.58-112.78h0ZM1802.64,701.52s-28.75,19.3-54.08-6.23l-39.57-41.79,53.84-53.41,41.45,41.79c4.59,4.64,33.64,26.49-1.64,59.65Z"/>
  </g>
  <g id="Layer_1_copy">
    <path d="M258.68,1502.45h1970.62l-980.08-980.07-990.54,980.07Z"/>
    <path d="M221.03,1454.26l153.53-149.77-51.14-52.45-96.43,94.11-169.87-174.17L0,1227.7l221.03,226.56ZM408.25,1270.38l157.31-153.52-43.2-44.25-99.89,97.44-47.97-49.18,80.04-78.09-45.21-46.3-80.04,78.05-41.1-42.12,96.6-94.27-43.17-44.24-156.82,153,223.43,223.47ZM923.15,542.61c-63.44-65.04-173.5-57.26-226.5-5.53-53.02,51.72-80.07,154.85-5.21,231.6,82.23,84.28,180.07,53.67,233.09,1.98,78.17-76.26,50.34-175.02-1.38-228.04h0ZM876.52,726.12c-35.09,34.24-78,24.95-127.01-25.31-41.2-42.22-38.72-84.64-8.76-113.87,20.6-20.1,62.43-38.08,112.21,12.94,56.79,58.21,58.66,91.99,23.57,126.23h0ZM1100.1,596.63l58.04-56.64-87.31-89.49-52.26-217.44-66.53,64.92,34.61,123.36-116.93-43.06-62.73,61.2,199.35,64.01,93.77,93.14ZM790.65,898.88s-141.25-48.19-147.97-47.03c-2.18.36,30.34-86.17-42.72-124.52,0,0-54.21-29.35-108.46,19.94l-115.63,113.96,222.92,224.5,58.98-57.54-120.63-123.61,195,51.41,58.52-57.1ZM571.87,868.05c-32.77,31.92-37.2,34.44-37.2,34.44l-53.2-54.52c-1.82-1.86,36.74-34.92,42.82-40.85,2.57-2.52,26.59-18.18,46.46,2.18,0,0,33.88,26.79,1.12,58.76h0ZM1082.09,275.9l-51.58-52.01L1255.69.55l73.7,74.3-81.12,159.66,165.39-74.7,70.91,71.51-225.18,223.35-54.35-54.79,118.86-117.88-162.6,73.77-33.61-33.9,75.58-162.45-121.17,116.49ZM1473.08,670.1l-156.13-157.4,225.19-223.35,156.57,157.87-45.49,45.12-98.09-98.89-36.69,36.37,77.37,78.01-47.37,46.97-76.9-77.54-49.22,48.81,97.17,97.97-46.42,46.06ZM1987.92,738.8l58.02,58.52-170.4,168.99,95.32,96.08-54.79,54.38-153.34-154.61,225.19-223.36ZM1956.59,1157.64l225.19-223.35,56.64,57.1-225.19,223.33-56.64-57.08ZM2115.93,1318.31l-52.97-53.41,225.21-223.33,76.91,77.5-65.72,231.89,149.06-147.85,51.58,52.01-225.18,223.33-67.26-67.77,57.91-243.45-149.55,151.08ZM1886.15,636.2l-136.77-137.91-225.66,222.89,58.02,58.49,123.03-122.02-44.28,201.42,59.4,59.9s46.83-144.08,48.27-150.09c0,0,50.74,27.95,106.42-19.91,0,0,53.4-52.03,11.58-112.78h0ZM1802.64,701.52s-28.75,19.3-54.08-6.23l-39.57-41.79,53.84-53.41,41.45,41.79c4.59,4.64,33.64,26.49-1.64,59.65Z"/>
  </g>
</svg>