<?xml version="1.0" encoding="UTF-8"?>
<svg xmlns="http://www.w3.org/2000/svg" version="1.1" viewBox="0 0 2500 642">
  <!-- Generator: Adobe Illustrator 30.3.0, SVG Export Plug-In . SVG Version: 2.1.3 Build 182)  -->
  <defs>
    <style>
      .st0 {
        fill: #2360a5;
      }
    </style>
  </defs>
  <g id="Layer_1">
    <path class="st0" d="M97.22,506.2l28.71-96.32h113.69l26.92,96.32h105.3l-104.71-367.37c-5.98-21.56-19.16-31.74-41.88-31.74H76.3v34.71h12.55c15.56,0,23.94,6.01,23.94,17.94,0,7.79-1.81,14.37-7.79,32.33L.27,506.2h96.94ZM225.25,344.65h-84.36l44.86-146.62,39.5,146.62ZM493.17,506.2V137.61c0-19.13-11.34-30.52-29.92-30.52h-92.13v34.71h5.98c15.56,0,22.13,6.58,22.13,22.13v342.24h93.94v.03ZM652.76,506.2V137.61c0-19.13-11.39-30.52-29.87-30.52h-92.18v34.71h5.98c15.56,0,22.13,6.58,22.13,22.13v342.24h93.94v.03ZM814.78,506.2V237.5c0-19.1-11.36-30.47-29.9-30.47h-90.96v34.09h5.41c15.56,0,22.13,7.17,22.13,22.73v242.32h93.32v.03h0ZM816.56,143.59c0-26.92-19.73-43.07-53.84-43.07s-53.84,16.15-53.84,43.07,20.32,43.1,53.84,43.1,53.84-16.18,53.84-43.1ZM894.2,292.56c31.12-14.94,65.23-23.3,92.15-23.3,25.11,0,34.09,8.98,34.09,35.26v6.6c-38.29,5.95-50.24,8.39-71.78,13.18-12.06,2.79-23.88,6.58-35.31,11.34-37.69,14.96-55.66,44.29-55.66,89.13,0,56.82,24.54,84.39,75.41,84.39,18.53,0,35.31-3.55,50.24-9.55,13.18-5.95,20.94-10.77,40.1-25.73v4.19c0,18.56,9.58,28.11,28.11,28.11h85.55v-32.31h-4.17c-16.18,0-22.16-7.17-22.16-26.35v-142.37c0-76-26.33-102.33-102.33-102.33-24.49,0-48.41,2.98-71.78,8.36-23.32,5.38-35.31,10.17-63.42,23.97l20.94,57.42h0ZM1020.44,362.61v58.04c-15.56,16.13-34.69,25.73-50.87,25.73s-22.7-8.39-22.7-30.55,4.76-32.31,21.54-38.88c12.55-5.38,28.71-10.15,52.03-14.34h0ZM1273.4,506.2v-202.22c15.56-17.34,31.71-25.14,50.24-25.14,19.75,0,24.51,7.79,24.51,37.74v189.64h93.32v-203.41c0-47.27-3.57-62.2-18.56-78.38-12.55-13.77-31.68-20.99-56.25-20.99-36.45,0-62.2,11.39-96.92,43.7v-11.96c0-18.59-9.53-28.14-28.73-28.14h-88.53v34.09h5.38c15.58,0,22.16,7.17,22.16,22.73v242.32h93.37v.03ZM1718.46,443.35h-130.47l124.49-174.68v-61.63h-195.05c-22.18,0-32.31,10.15-32.31,32.31v54.41h34.71v-5.36c0-13.75,7.17-20.35,22.11-20.35h67.04l-125.65,176.52v61.63h235.17v-62.85h-.05ZM2499.73,320.7c0-183.69-137.04-320.7-320.78-320.7s-321.3,137.01-321.3,320.7,137.64,321.3,321.3,321.3,320.78-137.01,320.78-321.3h0ZM2436.28,320.7c0,151.38-108.93,261.5-257.33,261.5s-257.26-110.12-257.26-261.5,108.31-260.85,257.26-260.85,257.33,110.09,257.33,260.85h0ZM2095.8,490.02V199.84h-52.08c-25.73,0-35.93,10.17-35.93,35.9v254.25h88.01v.03h0ZM2262.09,490.02h87.39v-254.28c0-25.73-9.58-35.9-35.93-35.9h-51.46v290.18ZM2222.64,490.02V153.19c0-26.95-8.98-35.93-35.93-35.93h-78.36v37.09h4.79l8.39.57c3,0,5.95,1.81,8.39,4.22,3.6,4.17,4.76,8.36,4.76,17.34v313.53h87.96Z"/>
  </g>
  <g id="Layer_1_copy">
    <path d="M97.22,506.2l28.71-96.32h113.69l26.92,96.32h105.3l-104.71-367.37c-5.98-21.56-19.16-31.74-41.88-31.74H76.3v34.71h12.55c15.56,0,23.94,6.01,23.94,17.94,0,7.79-1.81,14.37-7.79,32.33L.27,506.2h96.94ZM225.25,344.65h-84.36l44.86-146.62,39.5,146.62ZM493.17,506.2V137.61c0-19.13-11.34-30.52-29.92-30.52h-92.13v34.71h5.98c15.56,0,22.13,6.58,22.13,22.13v342.24h93.94v.03ZM652.76,506.2V137.61c0-19.13-11.39-30.52-29.87-30.52h-92.18v34.71h5.98c15.56,0,22.13,6.58,22.13,22.13v342.24h93.94v.03ZM814.78,506.2V237.5c0-19.1-11.36-30.47-29.9-30.47h-90.96v34.09h5.41c15.56,0,22.13,7.17,22.13,22.73v242.32h93.32v.03h0ZM816.56,143.59c0-26.92-19.73-43.07-53.84-43.07s-53.84,16.15-53.84,43.07,20.32,43.1,53.84,43.1,53.84-16.18,53.84-43.1ZM894.2,292.56c31.12-14.94,65.23-23.3,92.15-23.3,25.11,0,34.09,8.98,34.09,35.26v6.6c-38.29,5.95-50.24,8.39-71.78,13.18-12.06,2.79-23.88,6.58-35.31,11.34-37.69,14.96-55.66,44.29-55.66,89.13,0,56.82,24.54,84.39,75.41,84.39,18.53,0,35.31-3.55,50.24-9.55,13.18-5.95,20.94-10.77,40.1-25.73v4.19c0,18.56,9.58,28.11,28.11,28.11h85.55v-32.31h-4.17c-16.18,0-22.16-7.17-22.16-26.35v-142.37c0-76-26.33-102.33-102.33-102.33-24.49,0-48.41,2.98-71.78,8.36-23.32,5.38-35.31,10.17-63.42,23.97l20.94,57.42h0ZM1020.44,362.61v58.04c-15.56,16.13-34.69,25.73-50.87,25.73s-22.7-8.39-22.7-30.55,4.76-32.31,21.54-38.88c12.55-5.38,28.71-10.15,52.03-14.34h0ZM1273.4,506.2v-202.22c15.56-17.34,31.71-25.14,50.24-25.14,19.75,0,24.51,7.79,24.51,37.74v189.64h93.32v-203.41c0-47.27-3.57-62.2-18.56-78.38-12.55-13.77-31.68-20.99-56.25-20.99-36.45,0-62.2,11.39-96.92,43.7v-11.96c0-18.59-9.53-28.14-28.73-28.14h-88.53v34.09h5.38c15.58,0,22.16,7.17,22.16,22.73v242.32h93.37v.03ZM1718.46,443.35h-130.47l124.49-174.68v-61.63h-195.05c-22.18,0-32.31,10.15-32.31,32.31v54.41h34.71v-5.36c0-13.75,7.17-20.35,22.11-20.35h67.04l-125.65,176.52v61.63h235.17v-62.85h-.05ZM2499.73,320.7c0-183.69-137.04-320.7-320.78-320.7s-321.3,137.01-321.3,320.7,137.64,321.3,321.3,321.3,320.78-137.01,320.78-321.3h0ZM2436.28,320.7c0,151.38-108.93,261.5-257.33,261.5s-257.26-110.12-257.26-261.5,108.31-260.85,257.26-260.85,257.33,110.09,257.33,260.85h0ZM2095.8,490.02V199.84h-52.08c-25.73,0-35.93,10.17-35.93,35.9v254.25h88.01v.03h0ZM2262.09,490.02h87.39v-254.28c0-25.73-9.58-35.9-35.93-35.9h-51.46v290.18ZM2222.64,490.02V153.19c0-26.95-8.98-35.93-35.93-35.93h-78.36v37.09h4.79l8.39.57c3,0,5.95,1.81,8.39,4.22,3.6,4.17,4.76,8.36,4.76,17.34v313.53h87.96Z"/>
  </g>
</svg>