<?xml version="1.0" encoding="UTF-8"?>
<svg xmlns="http://www.w3.org/2000/svg" version="1.1" viewBox="0 0 2500 624">
  <!-- Generator: Adobe Illustrator 30.3.0, SVG Export Plug-In . SVG Version: 2.1.3 Build 182)  -->
  <defs>
    <style>
      .st0 {
        fill: #7d3990;
      }

      .st1 {
        fill: #fff;
      }

      .st2 {
        fill: #eebd31;
      }

      .st3 {
        display: none;
      }
    </style>
  </defs>
  <g id="Layer_1" class="st3">
    <path class="st0" d="M837.26,575.81l-1.38-104.94s.54-34.04-22.24-51.32c-16.02-12.53-40.59-17.3-59.54-17.3-34.47,0-58.31,13.85-70.46,36.34-.6,1.13-1.17,2.26-1.68,3.34l31.64,13.25c3.33-12.61,13.08-26.53,41.8-26.53,45.69,0,45.69,35.46,45.69,56.67v5.17l-32.41,2.59c-60.93,4.79-82.61,18.62-94.3,35.94-6.09,9.1-9.12,19.89-9.12,30.73,0,34.56,29.49,58.15,69.28,58.15s58.11-22.29,68.51-33.05c.98,15.75,4.07,30.16,4.07,30.16l35.72-.14c-4.39-8.55-5.58-39.03-5.58-39.06ZM795.88,558.43c-9.92,21.23-30.23,30.75-54,30.73-25.47,0-38.44-13.85-38.44-30.29,0-14.32,6.49-28.59,44.47-36.79,22.14-4.75,40.23-7.37,53.58-9.54,0,29.89-.4,34.66-5.61,45.89ZM2026.04,575.81l-1.37-104.94s.53-34.04-22.26-51.32c-16-12.53-40.59-17.3-59.55-17.3-34.44,0-58.26,13.85-70.43,36.34-.6,1.09-1.17,2.21-1.7,3.34l31.62,13.25c3.35-12.61,13.1-26.53,41.82-26.53,45.66,0,45.66,35.46,45.66,56.67v5.17l-32.39,2.59c-60.91,4.79-82.6,18.62-94.31,35.94-6.07,9.1-9.1,19.89-9.1,30.73,0,34.56,29.51,58.15,69.3,58.15s58.09-22.29,68.47-33.05c1,15.75,4.09,30.16,4.11,30.16l35.72-.14c-4.39-8.55-5.59-39.03-5.59-39.06ZM1984.67,558.43c-9.93,21.23-30.23,30.75-54,30.73-25.48,0-38.46-13.85-38.46-30.29,0-14.32,6.49-28.59,44.49-36.79,22.14-4.75,40.26-7.37,53.6-9.54,0,29.89-.46,34.66-5.63,45.89ZM1565.6,592.69c-48.34.8-62.7-42.42-61.82-76.64h147.01c0-8.66,0-24.23-3.93-41.49-12.08-51.41-48.07-72.13-85.61-72.13-43.15,0-93.85,29.36-93.85,106.26,0,68.82,34.75,109.88,95.17,109.88,44.52,0,67.12-22.85,78.81-42.78l-33.31-6.43c-8.87,14.01-22.76,22.98-42.47,23.33ZM1558.64,428.78c20.61,0,51.43,9.04,54.46,62.59h-108.5c3.89-41.04,24.7-62.59,54.04-62.59ZM1175.15,592.69c-48.34.8-62.7-42.42-61.82-76.64h147.01c0-8.66,0-24.23-3.89-41.49-12.15-51.41-48.09-72.13-85.63-72.13-43.17,0-93.88,29.36-93.88,106.26,0,68.82,34.74,109.88,95.16,109.88,44.56,0,67.14-22.85,78.85-42.78l-33.32-6.43c-8.86,14.01-22.77,22.98-42.48,23.33ZM1168.21,428.78c20.59,0,51.45,9.04,54.48,62.59h-108.54c3.89-41.04,24.7-62.59,54.06-62.59ZM1766.34,592.43c-23.17,0-61.9-14.58-61.9-82.03,0-18.14,3.31-82.46,59.73-82.46,28.51,0,41.59,15.49,47.7,28.88l32.15-13.41c-19.77-32.99-55.56-40.7-81.1-40.7-65.16,0-96.66,52.45-96.66,110.29,0,50.05,27.33,105.79,99.66,105.79,41.87,0,65.18-20.24,78.03-40.41l-30.46-12.68c-7.16,14.02-20.64,26.73-47.15,26.73ZM1445.48,451.5c-9.99-33.76-41.22-46.8-67.27-46.8-12.13,0-44.7,3.03-63.81,36.43v-29.75h-34.33v203.3h34.33v-116.08c0-15.16,0-30.69,15.22-45.82,10.85-10.8,23.87-15.53,39.06-15.53,18.65,0,37.78,8.63,43.84,28.05,2.18,6.9,2.18,12.93,2.18,33.67v115.69h34.23v-121.3c0-17.25,0-29.76-3.45-41.86ZM908.68,582.36l152.31-203.24v-33.58h-193.8v33.16h152.97l-153.08,201v34.96h197.73v-32.3h-156.13ZM593.94,446.61v-36.65h-34.35v204.69h34.35v-94.07c0-17.59-.48-38.38,8.66-53.18,11.14-18.16,27.67-25.09,61.4-25.31v-35.46c-13.87.44-50.61,1.34-70.06,39.98ZM528.61,438.06v-28.61h-37.18v-63.69l-35.48,14.78v48.89h-32.41v28.61h32.41v131.99c-.42,26.69-.42,46,39.37,46,12.97,0,27.22-2.59,33.29-3.45v-28.33c-6.91,2.17-16.01,4.78-22.49,4.78-14.69,0-14.69-10.39-14.69-34.54v-116.43h37.18ZM331.45,491.18c-21.85-4.38-47.47-12.44-47.47-31.84,0-13.79,13.49-29.72,40.43-29.72s43.98,18.76,46.52,26.16l31.84-13.28c-14.58-27.86-43.85-39.26-74.45-39.26-47.33,0-78.68,23.36-78.68,60.41,0,42.22,36.13,50.48,71.12,58.06,30.09,6.54,59.34,13.85,59.34,37.12,0,21.98-17.85,33.58-48.25,33.58-24.55,0-41.03-6.87-50.15-22.72l-36.32,6.35c14.16,28.89,43.57,42.75,84.97,42.75,56.23,0,85.66-31.11,85.66-64.27,0-42.64-39.31-54.24-84.56-63.34ZM140.7,345.49h-37.34L.79,614.66h38.11l30.13-82.5h102.54l29.33,82.5h37.78l-97.98-269.17ZM80.47,501.96l41.17-111.8,39.25,111.8h-80.42Z"/>
    <path class="st2" d="M2335.7,229.97c-4.5-41.73,16.37-293.98-99.24-214.62-72.82,60.8-179.4,189.78-222.1,272-16,32.58,2.56,38.74,28.05,54.61l-.22-.09.29.13,2.98,1.57,74.17,38.71,73.82,40.19,54.96,30.86c-58.54,32.43-198.62,161.1-48.38,170.67,41.86-1.88,198.75-32.04,223.36-62.37,4.24-6.07,4.53-12.53.84-19.04l-3.69-5.08-4.28-4.2-4.05-3.18-33.56-20.44-41.27-24.39c179.78-114.95,249.72-183.8-1.68-255.33ZM2352.21,515.85l16.59,11.23,11.29,8.95,4.62,4.5,3.31,4.09.07.31v.37l-.11.36-.27.44-.55.33-152.35,11.93,6.49-5.96,32.43-24.18,47.35-32.16,31.13,19.79Z"/>
    <path class="st1" d="M2402.93,337.34l-3.18-4.82-7.22-6-28.79-16.71-30.82-14.4c-11.73,246.91-155.1,24.76-199.85-75.76l-73.55,74.99c-3.72,3.97-11.43,12.45-9.35,18.71l2.72,4.79,2.49,2.41,16.99,12.2,67.39,40.31,122.86,70.26,83.2-53.58,22.63-15.42,17.18-12.85,13.32-11.69,3.61-4.79.9-2.24.18-2.74-.71-2.67ZM2159.33,191.28l15.2,1,47.35,7.79,50.7,11.71c-12.33-164.5-8.97-122.33-113.25-20.5Z"/>
    <path class="st1" d="M2159.33,227.18c9.32,36.14,70.39,132.07,101.76,148.18l6.96,2.16,4.2-.07,4.26-1.88,1.9-1.97,1.7-3.71.58-2.69.51-7.71-1.32-39.24-3.36-50.08-109.67-46.97-6.36-2.27-.64-.05-.38.02-.26.16-.18.26-.24.79.53,5.08h0Z"/>
  </g>
  <g id="Layer_1_copy">
    <path d="M140.7,345.49h-37.34L.79,614.66h38.11l30.13-82.5h102.54l29.33,82.5h37.78l-97.98-269.17ZM80.47,501.96l41.17-111.8,39.25,111.8h-80.42ZM331.45,491.18c-21.85-4.38-47.47-12.44-47.47-31.84,0-13.79,13.49-29.72,40.43-29.72s43.98,18.76,46.52,26.16l31.84-13.28c-14.58-27.86-43.85-39.26-74.45-39.26-47.33,0-78.68,23.36-78.68,60.41,0,42.22,36.13,50.48,71.12,58.06,30.09,6.54,59.34,13.85,59.34,37.12,0,21.98-17.85,33.58-48.25,33.58-24.55,0-41.03-6.87-50.15-22.72l-36.32,6.35c14.16,28.89,43.57,42.75,84.97,42.75,56.23,0,85.66-31.11,85.66-64.27,0-42.64-39.31-54.24-84.56-63.34ZM528.61,438.06v-28.61h-37.18v-63.69l-35.48,14.78v48.89h-32.41v28.61h32.41v131.99c-.42,26.69-.42,46,39.37,46,12.97,0,27.22-2.59,33.29-3.45v-28.33c-6.91,2.17-16.01,4.78-22.49,4.78-14.69,0-14.69-10.39-14.69-34.54v-116.43h37.18ZM593.94,446.61v-36.65h-34.35v204.69h34.35v-94.07c0-17.59-.48-38.38,8.66-53.18,11.14-18.16,27.67-25.09,61.4-25.31v-35.46c-13.87.44-50.61,1.34-70.06,39.98ZM908.68,582.36l152.31-203.24v-33.58h-193.8v33.16h152.97l-153.08,201v34.96h197.73v-32.3h-156.13ZM1445.48,451.5c-9.99-33.76-41.22-46.8-67.27-46.8-12.13,0-44.7,3.03-63.81,36.43v-29.75h-34.33v203.3h34.33v-116.08c0-15.16,0-30.69,15.22-45.82,10.85-10.8,23.87-15.53,39.06-15.53,18.65,0,37.78,8.63,43.84,28.05,2.18,6.9,2.18,12.93,2.18,33.67v115.69h34.23v-121.3c0-17.25,0-29.76-3.45-41.86ZM1766.34,592.43c-23.17,0-61.9-14.58-61.9-82.03,0-18.14,3.31-82.46,59.73-82.46,28.51,0,41.59,15.49,47.7,28.88l32.15-13.41c-19.77-32.99-55.56-40.7-81.1-40.7-65.16,0-96.66,52.45-96.66,110.29,0,50.05,27.33,105.79,99.66,105.79,41.87,0,65.18-20.24,78.03-40.41l-30.46-12.68c-7.16,14.02-20.64,26.73-47.15,26.73ZM1175.15,592.69c-48.34.8-62.7-42.42-61.82-76.64h147.01c0-8.66,0-24.23-3.89-41.49-12.15-51.41-48.09-72.13-85.63-72.13-43.17,0-93.88,29.36-93.88,106.26,0,68.82,34.74,109.88,95.16,109.88,44.56,0,67.14-22.85,78.85-42.78l-33.32-6.43c-8.86,14.01-22.77,22.98-42.48,23.33ZM1168.21,428.78c20.59,0,51.45,9.04,54.48,62.59h-108.54c3.89-41.04,24.7-62.59,54.06-62.59ZM1565.6,592.69c-48.34.8-62.7-42.42-61.82-76.64h147.01c0-8.66,0-24.23-3.93-41.49-12.08-51.41-48.07-72.13-85.61-72.13-43.15,0-93.85,29.36-93.85,106.26,0,68.82,34.75,109.88,95.17,109.88,44.52,0,67.12-22.85,78.81-42.78l-33.31-6.43c-8.87,14.01-22.76,22.98-42.47,23.33ZM1558.64,428.78c20.61,0,51.43,9.04,54.46,62.59h-108.5c3.89-41.04,24.7-62.59,54.04-62.59ZM2026.04,575.81l-1.37-104.94s.53-34.04-22.26-51.32c-16-12.53-40.59-17.3-59.55-17.3-34.44,0-58.26,13.85-70.43,36.34-.6,1.09-1.17,2.21-1.7,3.34l31.62,13.25c3.35-12.61,13.1-26.53,41.82-26.53,45.66,0,45.66,35.46,45.66,56.67v5.17l-32.39,2.59c-60.91,4.79-82.6,18.62-94.31,35.94-6.07,9.1-9.1,19.89-9.1,30.73,0,34.56,29.51,58.15,69.3,58.15s58.09-22.29,68.47-33.05c1,15.75,4.09,30.16,4.11,30.16l35.72-.14c-4.39-8.55-5.59-39.03-5.59-39.06ZM1984.67,558.43c-9.93,21.23-30.23,30.75-54,30.73-25.48,0-38.46-13.85-38.46-30.29,0-14.32,6.49-28.59,44.49-36.79,22.14-4.75,40.26-7.37,53.6-9.54,0,29.89-.46,34.66-5.63,45.89ZM837.26,575.81l-1.38-104.94s.54-34.04-22.24-51.32c-16.02-12.53-40.59-17.3-59.54-17.3-34.47,0-58.31,13.85-70.46,36.34-.6,1.13-1.17,2.26-1.68,3.34l31.64,13.25c3.33-12.61,13.08-26.53,41.8-26.53,45.69,0,45.69,35.46,45.69,56.67v5.17l-32.41,2.59c-60.93,4.79-82.61,18.62-94.3,35.94-6.09,9.1-9.12,19.89-9.12,30.73,0,34.56,29.49,58.15,69.28,58.15s58.11-22.29,68.51-33.05c.98,15.75,4.07,30.16,4.07,30.16l35.72-.14c-4.39-8.55-5.58-39.03-5.58-39.06ZM795.88,558.43c-9.92,21.23-30.23,30.75-54,30.73-25.47,0-38.44-13.85-38.44-30.29,0-14.32,6.49-28.59,44.47-36.79,22.14-4.75,40.23-7.37,53.58-9.54,0,29.89-.4,34.66-5.61,45.89Z"/>
    <path d="M2335.7,229.97c-4.5-41.73,16.37-293.98-99.24-214.62-72.82,60.8-179.4,189.78-222.1,272-16,32.58,2.56,38.74,28.05,54.61l-.22-.09.29.13,2.98,1.57,74.17,38.71,73.82,40.19,54.96,30.86c-58.54,32.43-198.62,161.1-48.38,170.67,41.86-1.88,198.75-32.04,223.36-62.37,4.24-6.07,4.53-12.53.84-19.04l-3.69-5.08-4.28-4.2-4.05-3.18-33.56-20.44-41.27-24.39c179.78-114.95,249.72-183.8-1.68-255.33ZM2272.58,211.78l-50.7-11.71-47.35-7.79-15.2-1c104.28-101.83,100.92-144,113.25,20.5ZM2159.03,221.31l.19-.25.25-.17.39-.02.64.06,6.35,2.26,109.67,46.97,3.37,50.08,1.31,39.24-.51,7.71-.59,2.69-1.69,3.71-1.9,1.97-4.26,1.88-4.2.07-6.96-2.15c-31.37-16.12-92.45-112.05-101.76-148.18l-.53-5.08.23-.79ZM2352.21,515.85l16.59,11.23,11.29,8.95,4.62,4.5,3.31,4.09.07.31v.37l-.11.36-.27.44-.55.33-152.35,11.93,6.49-5.96,32.43-24.18,47.35-32.16,31.13,19.79ZM2403.46,342.75l-.9,2.24-3.61,4.79-13.32,11.69-17.18,12.85-22.63,15.42-83.2,53.58-122.86-70.26-67.39-40.31-16.99-12.2-2.49-2.41-2.72-4.79c-2.08-6.26,5.63-14.74,9.35-18.71l73.55-74.99c44.75,100.52,188.12,322.67,199.85,75.76l30.82,14.4,28.79,16.71,7.22,6,3.18,4.82.71,2.67-.18,2.74Z"/>
  </g>
</svg>