<?xml version="1.0" encoding="UTF-8"?>
<svg xmlns="http://www.w3.org/2000/svg" version="1.1" viewBox="0 0 2500 587">
  <!-- Generator: Adobe Illustrator 30.3.0, SVG Export Plug-In . SVG Version: 2.1.3 Build 182)  -->
  <defs>
    <style>
      .st0 {
        fill: #00a651;
      }

      .st1 {
        fill: #0078d0;
      }

      .st2 {
        fill: #ffb114;
      }

      .st3 {
        display: none;
      }

      .st4 {
        fill: #f0282d;
      }
    </style>
  </defs>
  <g id="Layer_1" class="st3">
    <path d="M1457.88,145.84V8.52h18.13v137.33h-18.13ZM1507.46,145.84V51.09h16.89v12.77c6.46-9.77,17.33-15.71,29.04-15.86,22.04,0,35.02,13.73,35.02,38.11v59.74h-16.89v-57.61c0-17.85-5.91-26.92-20.6-26.92-14.29-.25-26.09,11.13-26.34,25.42-.01.68,0,1.36.04,2.04v56.99l-17.17.07ZM1621.58,118.93v-53.83h-17.85v-13.73h17.85v-31.24h16.75v31.24h19.84v13.73h-19.84v52.05c0,10.99,5.49,14.56,13.73,14.56,2.3-.03,4.6-.24,6.87-.62v14.56c-3.61.78-7.29,1.17-10.99,1.17-13.73,0-26.37-6.87-26.37-27.88ZM1671.7,98.05c0-29.05,19.09-50.06,45.04-50.06,28.29,0,43.81,19.84,43.81,50.26v3.36h-71.75c0,21.63,12.77,33.99,29.11,33.99,11.6,0,22.59-4.53,24.93-19.09h17.17c-2.13,16.75-15.11,32.27-42.02,32.27-28.56,0-46.28-17.92-46.28-50.74ZM1742.43,89.61c0-16.89-9-28.29-25.68-28.29s-26.16,12.43-27.47,28.29h53.15ZM1782.94,145.84V51.09h16.89v15.72c5.11-11.75,16.86-19.2,29.66-18.81h4.33v16.75c-1.75-.29-3.52-.43-5.29-.41-18.26,0-28.7,10.23-28.7,31.24v50.12l-16.89.14ZM1850.57,145.84V51.09h16.89v12.77c6.46-9.77,17.33-15.71,29.05-15.86,22.04,0,35.02,13.73,35.02,38.11v59.74h-16.96v-57.61c0-17.85-5.84-26.92-20.6-26.92-14.29-.25-26.09,11.13-26.34,25.42-.01.68,0,1.36.04,2.04v56.99l-17.1.07ZM1953.16,119.89c0-18.68,14.69-26.92,31.38-29.46l20.6-3.16c6.87-.96,9.41-4.12,9.41-9.27,0-10.57-8.65-16.69-20.05-16.69-14.35,0-21.42,7.69-21.77,19.43h-16.96c.62-17.23,14.14-32.75,38.18-32.75s36.74,13.73,36.74,35.71v61.8h-16.14v-12.77c-4.53,9.82-14.9,15.72-29.25,15.72-17.85.34-32.13-10.71-32.13-28.56h0ZM2014.96,110.07v-13.39c-3.17,2.25-6.9,3.56-10.78,3.78l-13.73,2.33c-11.19,1.99-19.84,6.87-19.84,17.1.04,8.76,7.17,15.83,15.93,15.79.46,0,.91-.02,1.37-.07,13.93.91,25.95-9.64,26.86-23.56.04-.66.06-1.32.05-1.98h.14ZM2063.98,118.93v-53.83h-17.92v-13.73h17.92v-31.24h16.69v31.24h19.84v13.73h-19.84v52.05c0,10.99,5.49,14.56,13.73,14.56,2.3-.03,4.6-.24,6.87-.62v14.56c-3.61.78-7.29,1.17-10.99,1.17-13.73,0-26.3-6.87-26.3-27.88ZM2119.74,33.24V12.98h19.5v20.26h-19.5ZM2121.11,145.84V51.09h16.96v94.76h-16.96ZM2160.25,98.26c0-29.46,19.23-50.26,46.55-50.26s46.55,20.6,46.55,50.26-19.23,50.54-46.55,50.54-46.55-20.26-46.55-50.54ZM2235.78,98.26c0-22.18-11.4-36.94-29.11-36.94s-29.05,14.76-29.05,36.94,10.99,37.35,29.05,37.35,29.25-15.11,29.25-37.35h-.14ZM2275.61,145.84V51.09h16.89v12.77c6.47-9.75,17.34-15.69,29.05-15.86,22.04,0,35.02,13.73,35.02,38.11v59.74h-16.89v-57.61c0-17.85-5.91-26.92-20.6-26.92-14.29-.25-26.09,11.13-26.34,25.42-.01.68,0,1.36.04,2.04v56.99l-17.17.07ZM2377.98,119.89c0-18.68,14.69-26.92,31.45-29.46l20.6-3.16c6.87-.96,9.41-4.12,9.41-9.27,0-10.57-8.58-16.69-19.98-16.69-14.35,0-21.42,7.69-21.84,19.43h-16.89c.55-17.23,14.14-32.75,38.11-32.75s36.74,13.73,36.74,35.71v61.8h-15.79v-12.77c-4.46,9.82-14.9,15.72-29.25,15.72-17.99.34-32.55-10.71-32.55-28.56ZM2439.78,110.07v-13.39c-3.17,2.25-6.9,3.56-10.78,3.78l-13.73,2.33c-11.26,1.99-19.84,6.87-19.84,17.1,0,8.72,7.07,15.79,15.8,15.79.48,0,.96-.02,1.44-.07,13.88,1.06,25.99-9.32,27.05-23.2.06-.78.08-1.56.07-2.34ZM2483.11,145.84V8.52h16.89v137.33h-16.89ZM1449.64,293.61c0-43.19,27.95-71.89,65.03-71.89s65.3,28.7,65.3,71.89-28.36,71.75-65.3,71.75-65.03-28.5-65.03-71.75ZM1561.08,293.61c0-35.16-18.88-56.79-46.42-56.79s-46.35,21.63-46.35,56.79,18.47,56.79,46.35,56.79,46.21-21.63,46.21-56.79h.21ZM1603.11,362.41v-137.33h16.96v137.33h-16.96ZM1641.63,406.01v-15.52c2.62.84,5.36,1.24,8.1,1.17,8.19.56,15.55-4.96,17.3-12.98l7.21-19.64-37.83-91.46h18.88l23.76,60.7c1.37,3.71,2.75,7.42,4.33,10.99,1.17-3.57,2.54-6.87,3.91-11.19l20.6-60.49h17.78l-43.53,116.73c-6.87,17.23-17.1,22.93-30.83,22.93-3.27-.01-6.52-.43-9.68-1.24h0ZM1742.29,362.41v-94.83h16.89v12.77c5.7-9.79,16.14-15.84,27.47-15.93,12.5-.46,23.93,7.03,28.5,18.68,6.22-11.37,18.08-18.51,31.04-18.68,18.88,0,33.03,11.95,33.03,37.9v59.94h-16.2v-56.58c0-17.92-5.49-27.95-20.05-27.95s-23.41,12.98-23.41,28.15v56.37h-16.89v-56.03c0-18.06-5.49-28.5-19.43-28.5s-23.76,13.18-23.76,28.91v55.62l-17.17.14ZM1906.74,403.89v-136.3h16.89v12.91c7.1-10.21,18.81-16.22,31.24-16.07,27.47,0,43.67,21.42,43.67,50.26s-17.92,50.54-44.01,50.54c-12.47.64-24.3-5.54-30.9-16.14v54.93l-16.89-.14ZM1980.83,314.62c0-21.77-11.4-36.94-28.7-36.94s-29.46,14.35-29.46,36.94,11.95,37.35,29.46,37.35,28.7-15.11,28.7-37.15v-.21ZM2019.35,249.8v-20.6h19.43v20.6h-19.43ZM2020.72,362.41v-94.83h16.89v94.69l-16.89.14ZM2059.86,314.83c0-29.87,20.6-50.26,48.07-50.26,22.38,0,39.28,13.73,41.2,34.95h-17.3c-.98-12.51-11.63-22.03-24.17-21.63-18.06,0-30.08,15.93-30.08,36.94,0,22.59,12.02,37.35,30.28,37.35,12.89.98,24.14-8.67,25.13-21.57,0-.02,0-.04,0-.06h16.69c-1.72,20.6-16.69,34.81-42.64,34.81s-47.17-16.89-47.17-50.54h0ZM1449.64,509.42c0-42.85,28.5-71.14,66.26-71.14,33.16,0,55.96,20.6,58.5,47.58h-19.43c-2.47-19.75-20.05-34.06-39.89-32.48-27.88,0-46.55,21.22-46.55,56.03s19.43,57.54,46.55,57.54c19.98,1.49,37.76-12.61,40.86-32.41h18.68c-3.71,29.32-26.5,47.38-59.12,47.38-39.28,0-65.85-27.53-65.85-72.51ZM1589.79,531.39c0-29.46,19.23-50.26,46.55-50.26s46.55,20.6,46.55,50.26-19.23,50.54-46.55,50.54-46.55-20.26-46.55-50.54ZM1665.32,531.39c0-22.18-11.4-36.94-29.11-36.94s-29.04,14.76-29.04,36.94,10.99,37.35,29.04,37.35,29.25-15.11,29.25-37.35h-.14ZM1705.07,578.98v-94.69h16.89v12.77c5.7-9.79,16.14-15.84,27.47-15.93,12.49-.44,23.91,7.05,28.5,18.68,6.22-11.37,18.08-18.51,31.04-18.68,18.88,0,33.03,11.95,33.03,37.9v59.94h-16.69v-56.58c0-17.92-5.49-27.95-20.05-27.95s-23.35,12.98-23.35,28.15v56.37h-16.96v-56.03c0-18.06-5.49-28.5-19.43-28.5s-23.76,13.18-23.76,28.91v55.62h-16.69ZM1869.87,578.98v-94.69h16.89v12.77c5.71-9.78,16.14-15.83,27.47-15.93,12.48-.39,23.88,7.07,28.5,18.68,6.2-11.39,18.07-18.54,31.04-18.68,18.88,0,33.03,11.95,33.03,37.9v59.94h-16.75v-56.58c0-17.92-5.49-27.95-19.98-27.95s-23.41,12.98-23.41,28.15v56.37h-16.89v-56.03c0-18.06-5.49-28.5-19.43-28.5s-23.83,13.18-23.83,28.91v55.62h-16.62ZM2032.74,466.71v-20.6h19.43v20.6h-19.43ZM2034.11,579.32v-95.03h16.89v94.69l-16.89.34ZM2086.16,552.06v-53.83h-17.85v-13.73h17.85v-31.52h16.69v31.24h19.84v13.73h-19.84v52.05c0,10.99,5.49,14.56,13.73,14.56,2.3-.03,4.6-.23,6.87-.62v14.56c-3.6.82-7.29,1.21-10.99,1.17-13.73.27-26.3-6.59-26.3-27.6h0ZM2150.22,552.06v-53.83h-17.85v-13.73h17.85v-31.52h16.69v31.24h19.84v13.73h-19.84v52.05c0,10.99,5.49,14.56,13.73,14.56,2.3-.03,4.6-.23,6.87-.62v14.56c-3.6.82-7.29,1.21-10.99,1.17-13.73.27-26.3-6.59-26.3-27.6h0ZM2200.35,531.26c0-29.11,19.02-50.12,44.98-50.12,28.29,0,43.81,19.84,43.81,50.26v3.36h-71.69c0,21.63,12.77,33.99,29.05,33.99,11.6,0,22.59-4.53,24.99-19.02h17.23c-2.2,16.69-15.17,32.2-42.09,32.2-28.63,0-46.28-17.92-46.28-50.67h0ZM2271.07,522.74c0-16.89-9.06-28.29-25.75-28.29s-26.16,12.43-27.47,28.29h53.21ZM2305.68,531.26c0-29.11,19.02-50.12,44.98-50.12,28.29,0,43.81,19.84,43.81,50.26v3.36h-71.41c0,21.63,12.77,33.99,29.05,33.99,11.6,0,22.59-4.53,24.99-19.02h16.89c-2.2,16.69-15.17,32.2-42.09,32.2-28.84,0-46.21-17.92-46.21-50.67ZM2376.4,522.74c0-16.89-9.06-28.29-25.75-28.29s-26.16,12.43-27.47,28.29h53.21Z"/>
    <path class="st4" d="M1252.44,202.9c.06,109.22-88.43,197.8-197.65,197.86-102.56.05-188.15-78.31-197.1-180.49,11.67,1.19,23.17,3.61,34.33,7.21,13.36,90.26,97.35,152.6,187.61,139.24s152.6-97.35,139.24-187.61-97.35-152.6-187.61-139.24c-77.07,11.41-135.7,75.11-140.68,152.87-10.74-2.77-21.7-4.63-32.75-5.56,9.09-108.88,104.71-189.77,213.59-180.68,102.24,8.53,180.99,93.81,181.37,196.41h-.34Z"/>
    <path class="st0" d="M840.52,219.52c81.52,0,150.78,59.61,162.94,140.21,11.03,3.57,22.39,5.99,33.92,7.21-8.97-102.05-94.41-180.35-196.86-180.38-5.84,0-11.54,0-17.1.76,0,5.15.55,10.37.55,15.72s0,11.67-.76,17.37c5.75-.61,11.52-.91,17.3-.89h0ZM1004.7,394.34c-5.65,90.84-83.88,159.89-174.71,154.24s-159.89-83.88-154.24-174.71c4.19-67.37,49.05-125.38,113.21-146.38,1.24-8.13,1.86-16.35,1.85-24.58v-10.16c-105.72,27.42-169.19,135.35-141.76,241.07,27.42,105.72,135.35,169.19,241.07,141.76,81.57-21.16,140.76-91.68,147.47-175.68-11.1-.92-22.1-2.78-32.89-5.56Z"/>
    <path d="M626.22,5.15c-103.12,0-188.94,79.23-197.14,182.03,11.03.94,21.96,2.8,32.68,5.56,5.65-90.84,83.88-159.89,174.71-154.24,90.84,5.65,159.89,83.88,154.24,174.71-4.19,67.37-49.05,125.38-113.21,146.38-1.19,8.14-1.79,16.36-1.79,24.58v10.16c105.73-27.38,169.24-135.29,141.85-241.02-22.61-87.31-101.44-148.26-191.63-148.17h.27ZM626.22,367.7c-81.54.03-150.85-59.58-163.01-140.21-11.05-3.58-22.44-5.99-33.99-7.21,9,102.09,94.51,180.39,197,180.38,5.77,0,11.47,0,17.1-.76-.34-5.15-.62-10.44-.62-15.72s.34-11.67.82-17.37c-5.75.61-11.52.91-17.3.89h0Z"/>
    <path class="st2" d="M394.75,220.41c.48-5.7.76-11.54.76-17.37s0-10.57-.55-15.72c5.56-.48,11.26-.76,17.1-.76,102.47.03,187.96,78.31,197,180.38-11.66-1.2-23.17-3.61-34.33-7.21-12.14-80.5-81.25-140.07-162.67-140.21-5.78-.06-11.55.19-17.3.76v.14ZM609.12,400.04c-8.7,108.87-104.02,190.07-212.88,181.36-108.87-8.7-190.07-104.02-181.36-212.88,6.71-83.96,65.87-154.46,147.4-175.64v10.16c.01,8.23-.61,16.45-1.85,24.58-86.5,28.31-133.66,121.39-105.35,207.88,28.31,86.5,121.39,133.66,207.88,105.35,64.16-21,109.02-79,113.21-146.38,10.81,2.74,21.84,4.55,32.96,5.42v.14Z"/>
    <path class="st1" d="M395.51,202.9c0-109.22-88.54-197.75-197.75-197.75C88.54,5.15,0,93.69,0,202.9c0,109.22,88.54,197.75,197.75,197.75,5.77,0,11.47,0,17.1-.76-.34-5.15-.62-10.44-.62-15.72s.34-11.67.76-17.37c-5.72.61-11.48.91-17.23.89-91.01-.33-164.53-74.38-164.2-165.39.33-91.01,74.38-164.53,165.39-164.2s164.53,74.38,164.2,165.39c-.26,71.13-46.12,134.07-113.75,156.1-1.19,8.14-1.79,16.36-1.79,24.58v10.16c87.12-22.72,147.91-101.4,147.9-191.44h0Z"/>
  </g>
  <g id="Layer_1_copy">
    <path d="M1457.88,145.84V8.52h18.13v137.33h-18.13ZM1507.46,145.84V51.09h16.89v12.77c6.46-9.77,17.33-15.71,29.04-15.86,22.04,0,35.02,13.73,35.02,38.11v59.74h-16.89v-57.61c0-17.85-5.91-26.92-20.6-26.92-14.29-.25-26.09,11.13-26.34,25.42-.01.68,0,1.36.04,2.04v56.99l-17.17.07ZM1621.58,118.93v-53.83h-17.85v-13.73h17.85v-31.24h16.75v31.24h19.84v13.73h-19.84v52.05c0,10.99,5.49,14.56,13.73,14.56,2.3-.03,4.6-.24,6.87-.62v14.56c-3.61.78-7.29,1.17-10.99,1.17-13.73,0-26.37-6.87-26.37-27.88ZM1671.7,98.05c0-29.05,19.09-50.06,45.04-50.06,28.29,0,43.81,19.84,43.81,50.26v3.36h-71.75c0,21.63,12.77,33.99,29.11,33.99,11.6,0,22.59-4.53,24.93-19.09h17.17c-2.13,16.75-15.11,32.27-42.02,32.27-28.56,0-46.28-17.92-46.28-50.74ZM1742.43,89.61c0-16.89-9-28.29-25.68-28.29s-26.16,12.43-27.47,28.29h53.15ZM1782.94,145.84V51.09h16.89v15.72c5.11-11.75,16.86-19.2,29.66-18.81h4.33v16.75c-1.75-.29-3.52-.43-5.29-.41-18.26,0-28.7,10.23-28.7,31.24v50.12l-16.89.14ZM1850.57,145.84V51.09h16.89v12.77c6.46-9.77,17.33-15.71,29.05-15.86,22.04,0,35.02,13.73,35.02,38.11v59.74h-16.96v-57.61c0-17.85-5.84-26.92-20.6-26.92-14.29-.25-26.09,11.13-26.34,25.42-.01.68,0,1.36.04,2.04v56.99l-17.1.07ZM1953.16,119.89c0-18.68,14.69-26.92,31.38-29.46l20.6-3.16c6.87-.96,9.41-4.12,9.41-9.27,0-10.57-8.65-16.69-20.05-16.69-14.35,0-21.42,7.69-21.77,19.43h-16.96c.62-17.23,14.14-32.75,38.18-32.75s36.74,13.73,36.74,35.71v61.8h-16.14v-12.77c-4.53,9.82-14.9,15.72-29.25,15.72-17.85.34-32.13-10.71-32.13-28.56h0ZM2014.96,110.07v-13.39c-3.17,2.25-6.9,3.56-10.78,3.78l-13.73,2.33c-11.19,1.99-19.84,6.87-19.84,17.1.04,8.76,7.17,15.83,15.93,15.79.46,0,.91-.02,1.37-.07,13.93.91,25.95-9.64,26.86-23.56.04-.66.06-1.32.05-1.98h.14ZM2063.98,118.93v-53.83h-17.92v-13.73h17.92v-31.24h16.69v31.24h19.84v13.73h-19.84v52.05c0,10.99,5.49,14.56,13.73,14.56,2.3-.03,4.6-.24,6.87-.62v14.56c-3.61.78-7.29,1.17-10.99,1.17-13.73,0-26.3-6.87-26.3-27.88ZM2119.74,33.24V12.98h19.5v20.26h-19.5ZM2121.11,145.84V51.09h16.96v94.76h-16.96ZM2160.25,98.26c0-29.46,19.23-50.26,46.55-50.26s46.55,20.6,46.55,50.26-19.23,50.54-46.55,50.54-46.55-20.26-46.55-50.54ZM2235.78,98.26c0-22.18-11.4-36.94-29.11-36.94s-29.05,14.76-29.05,36.94,10.99,37.35,29.05,37.35,29.25-15.11,29.25-37.35h-.14ZM2275.61,145.84V51.09h16.89v12.77c6.47-9.75,17.34-15.69,29.05-15.86,22.04,0,35.02,13.73,35.02,38.11v59.74h-16.89v-57.61c0-17.85-5.91-26.92-20.6-26.92-14.29-.25-26.09,11.13-26.34,25.42-.01.68,0,1.36.04,2.04v56.99l-17.17.07ZM2377.98,119.89c0-18.68,14.69-26.92,31.45-29.46l20.6-3.16c6.87-.96,9.41-4.12,9.41-9.27,0-10.57-8.58-16.69-19.98-16.69-14.35,0-21.42,7.69-21.84,19.43h-16.89c.55-17.23,14.14-32.75,38.11-32.75s36.74,13.73,36.74,35.71v61.8h-15.79v-12.77c-4.46,9.82-14.9,15.72-29.25,15.72-17.99.34-32.55-10.71-32.55-28.56ZM2439.78,110.07v-13.39c-3.17,2.25-6.9,3.56-10.78,3.78l-13.73,2.33c-11.26,1.99-19.84,6.87-19.84,17.1,0,8.72,7.07,15.79,15.8,15.79.48,0,.96-.02,1.44-.07,13.88,1.06,25.99-9.32,27.05-23.2.06-.78.08-1.56.07-2.34ZM2483.11,145.84V8.52h16.89v137.33h-16.89ZM1449.64,293.61c0-43.19,27.95-71.89,65.03-71.89s65.3,28.7,65.3,71.89-28.36,71.75-65.3,71.75-65.03-28.5-65.03-71.75ZM1561.08,293.61c0-35.16-18.88-56.79-46.42-56.79s-46.35,21.63-46.35,56.79,18.47,56.79,46.35,56.79,46.21-21.63,46.21-56.79h.21ZM1603.11,362.41v-137.33h16.96v137.33h-16.96ZM1641.63,406.01v-15.52c2.62.84,5.36,1.24,8.1,1.17,8.19.56,15.55-4.96,17.3-12.98l7.21-19.64-37.83-91.46h18.88l23.76,60.7c1.37,3.71,2.75,7.42,4.33,10.99,1.17-3.57,2.54-6.87,3.91-11.19l20.6-60.49h17.78l-43.53,116.73c-6.87,17.23-17.1,22.93-30.83,22.93-3.27-.01-6.52-.43-9.68-1.24h0ZM1742.29,362.41v-94.83h16.89v12.77c5.7-9.79,16.14-15.84,27.47-15.93,12.5-.46,23.93,7.03,28.5,18.68,6.22-11.37,18.08-18.51,31.04-18.68,18.88,0,33.03,11.95,33.03,37.9v59.94h-16.2v-56.58c0-17.92-5.49-27.95-20.05-27.95s-23.41,12.98-23.41,28.15v56.37h-16.89v-56.03c0-18.06-5.49-28.5-19.43-28.5s-23.76,13.18-23.76,28.91v55.62l-17.17.14ZM1906.74,403.89v-136.3h16.89v12.91c7.1-10.21,18.81-16.22,31.24-16.07,27.47,0,43.67,21.42,43.67,50.26s-17.92,50.54-44.01,50.54c-12.47.64-24.3-5.54-30.9-16.14v54.93l-16.89-.14ZM1980.83,314.62c0-21.77-11.4-36.94-28.7-36.94s-29.46,14.35-29.46,36.94,11.95,37.35,29.46,37.35,28.7-15.11,28.7-37.15v-.21ZM2019.35,249.8v-20.6h19.43v20.6h-19.43ZM2020.72,362.41v-94.83h16.89v94.69l-16.89.14ZM2059.86,314.83c0-29.87,20.6-50.26,48.07-50.26,22.38,0,39.28,13.73,41.2,34.95h-17.3c-.98-12.51-11.63-22.03-24.17-21.63-18.06,0-30.08,15.93-30.08,36.94,0,22.59,12.02,37.35,30.28,37.35,12.89.98,24.14-8.67,25.13-21.57,0-.02,0-.04,0-.06h16.69c-1.72,20.6-16.69,34.81-42.64,34.81s-47.17-16.89-47.17-50.54h0ZM1449.64,509.42c0-42.85,28.5-71.14,66.26-71.14,33.16,0,55.96,20.6,58.5,47.58h-19.43c-2.47-19.75-20.05-34.06-39.89-32.48-27.88,0-46.55,21.22-46.55,56.03s19.43,57.54,46.55,57.54c19.98,1.49,37.76-12.61,40.86-32.41h18.68c-3.71,29.32-26.5,47.38-59.12,47.38-39.28,0-65.85-27.53-65.85-72.51ZM1589.79,531.39c0-29.46,19.23-50.26,46.55-50.26s46.55,20.6,46.55,50.26-19.23,50.54-46.55,50.54-46.55-20.26-46.55-50.54ZM1665.32,531.39c0-22.18-11.4-36.94-29.11-36.94s-29.04,14.76-29.04,36.94,10.99,37.35,29.04,37.35,29.25-15.11,29.25-37.35h-.14ZM1705.07,578.98v-94.69h16.89v12.77c5.7-9.79,16.14-15.84,27.47-15.93,12.49-.44,23.91,7.05,28.5,18.68,6.22-11.37,18.08-18.51,31.04-18.68,18.88,0,33.03,11.95,33.03,37.9v59.94h-16.69v-56.58c0-17.92-5.49-27.95-20.05-27.95s-23.35,12.98-23.35,28.15v56.37h-16.96v-56.03c0-18.06-5.49-28.5-19.43-28.5s-23.76,13.18-23.76,28.91v55.62h-16.69ZM1869.87,578.98v-94.69h16.89v12.77c5.71-9.78,16.14-15.83,27.47-15.93,12.48-.39,23.88,7.07,28.5,18.68,6.2-11.39,18.07-18.54,31.04-18.68,18.88,0,33.03,11.95,33.03,37.9v59.94h-16.75v-56.58c0-17.92-5.49-27.95-19.98-27.95s-23.41,12.98-23.41,28.15v56.37h-16.89v-56.03c0-18.06-5.49-28.5-19.43-28.5s-23.83,13.18-23.83,28.91v55.62h-16.62ZM2032.74,466.71v-20.6h19.43v20.6h-19.43ZM2034.11,579.32v-95.03h16.89v94.69l-16.89.34ZM2086.16,552.06v-53.83h-17.85v-13.73h17.85v-31.52h16.69v31.24h19.84v13.73h-19.84v52.05c0,10.99,5.49,14.56,13.73,14.56,2.3-.03,4.6-.23,6.87-.62v14.56c-3.6.82-7.29,1.21-10.99,1.17-13.73.27-26.3-6.59-26.3-27.6h0ZM2150.22,552.06v-53.83h-17.85v-13.73h17.85v-31.52h16.69v31.24h19.84v13.73h-19.84v52.05c0,10.99,5.49,14.56,13.73,14.56,2.3-.03,4.6-.23,6.87-.62v14.56c-3.6.82-7.29,1.21-10.99,1.17-13.73.27-26.3-6.59-26.3-27.6h0ZM2200.35,531.26c0-29.11,19.02-50.12,44.98-50.12,28.29,0,43.81,19.84,43.81,50.26v3.36h-71.69c0,21.63,12.77,33.99,29.05,33.99,11.6,0,22.59-4.53,24.99-19.02h17.23c-2.2,16.69-15.17,32.2-42.09,32.2-28.63,0-46.28-17.92-46.28-50.67h0ZM2271.07,522.74c0-16.89-9.06-28.29-25.75-28.29s-26.16,12.43-27.47,28.29h53.21ZM2305.68,531.26c0-29.11,19.02-50.12,44.98-50.12,28.29,0,43.81,19.84,43.81,50.26v3.36h-71.41c0,21.63,12.77,33.99,29.05,33.99,11.6,0,22.59-4.53,24.99-19.02h16.89c-2.2,16.69-15.17,32.2-42.09,32.2-28.84,0-46.21-17.92-46.21-50.67ZM2376.4,522.74c0-16.89-9.06-28.29-25.75-28.29s-26.16,12.43-27.47,28.29h53.21Z"/>
    <path d="M1252.44,202.9c.06,109.22-88.43,197.8-197.65,197.86-102.56.05-188.15-78.31-197.1-180.49,11.67,1.19,23.17,3.61,34.33,7.21,13.36,90.26,97.35,152.6,187.61,139.24s152.6-97.35,139.24-187.61-97.35-152.6-187.61-139.24c-77.07,11.41-135.7,75.11-140.68,152.87-10.74-2.77-21.7-4.63-32.75-5.56,9.09-108.88,104.71-189.77,213.59-180.68,102.24,8.53,180.99,93.81,181.37,196.41h-.34Z"/>
    <path d="M840.52,219.52c81.52,0,150.78,59.61,162.94,140.21,11.03,3.57,22.39,5.99,33.92,7.21-8.97-102.05-94.41-180.35-196.86-180.38-5.84,0-11.54,0-17.1.76,0,5.15.55,10.37.55,15.72s0,11.67-.76,17.37c5.75-.61,11.52-.91,17.3-.89h0ZM1004.7,394.34c-5.65,90.84-83.88,159.89-174.71,154.24s-159.89-83.88-154.24-174.71c4.19-67.37,49.05-125.38,113.21-146.38,1.24-8.13,1.86-16.35,1.85-24.58v-10.16c-105.72,27.42-169.19,135.35-141.76,241.07,27.42,105.72,135.35,169.19,241.07,141.76,81.57-21.16,140.76-91.68,147.47-175.68-11.1-.92-22.1-2.78-32.89-5.56Z"/>
    <path d="M626.22,5.15c-103.12,0-188.94,79.23-197.14,182.03,11.03.94,21.96,2.8,32.68,5.56,5.65-90.84,83.88-159.89,174.71-154.24,90.84,5.65,159.89,83.88,154.24,174.71-4.19,67.37-49.05,125.38-113.21,146.38-1.19,8.14-1.79,16.36-1.79,24.58v10.16c105.73-27.38,169.24-135.29,141.85-241.02-22.61-87.31-101.44-148.26-191.63-148.17h.27ZM626.22,367.7c-81.54.03-150.85-59.58-163.01-140.21-11.05-3.58-22.44-5.99-33.99-7.21,9,102.09,94.51,180.39,197,180.38,5.77,0,11.47,0,17.1-.76-.34-5.15-.62-10.44-.62-15.72s.34-11.67.82-17.37c-5.75.61-11.52.91-17.3.89h0Z"/>
    <path d="M394.75,220.41c.48-5.7.76-11.54.76-17.37s0-10.57-.55-15.72c5.56-.48,11.26-.76,17.1-.76,102.47.03,187.96,78.31,197,180.38-11.66-1.2-23.17-3.61-34.33-7.21-12.14-80.5-81.25-140.07-162.67-140.21-5.78-.06-11.55.19-17.3.76v.14ZM609.12,400.04c-8.7,108.87-104.02,190.07-212.88,181.36-108.87-8.7-190.07-104.02-181.36-212.88,6.71-83.96,65.87-154.46,147.4-175.64v10.16c.01,8.23-.61,16.45-1.85,24.58-86.5,28.31-133.66,121.39-105.35,207.88,28.31,86.5,121.39,133.66,207.88,105.35,64.16-21,109.02-79,113.21-146.38,10.81,2.74,21.84,4.55,32.96,5.42v.14Z"/>
    <path d="M395.51,202.9c0-109.22-88.54-197.75-197.75-197.75C88.54,5.15,0,93.69,0,202.9c0,109.22,88.54,197.75,197.75,197.75,5.77,0,11.47,0,17.1-.76-.34-5.15-.62-10.44-.62-15.72s.34-11.67.76-17.37c-5.72.61-11.48.91-17.23.89-91.01-.33-164.53-74.38-164.2-165.39.33-91.01,74.38-164.53,165.39-164.2s164.53,74.38,164.2,165.39c-.26,71.13-46.12,134.07-113.75,156.1-1.19,8.14-1.79,16.36-1.79,24.58v10.16c87.12-22.72,147.91-101.4,147.9-191.44h0Z"/>
  </g>
</svg>